<?xml version="1.0" encoding="us-ascii" standalone="no"?><svg xmlns="http://www.w3.org/2000/svg" xmlns:xlink="http://www.w3.org/1999/xlink" contentStyleType="text/css" height="1101px" preserveAspectRatio="none" style="width:4631px;height:1101px;background:#FFFFFF;" version="1.1" viewBox="0 0 4631 1101" width="4631px" zoomAndPan="magnify"><defs/><g><!--cluster Randomizer--><g id="cluster_Randomizer"><rect fill="none" height="246" rx="2.5" ry="2.5" style="stroke:#181818;stroke-width:1.0;" width="188" x="4233.8" y="697"/><text fill="#000000" font-family="sans-serif" font-size="14" font-weight="bold" lengthAdjust="spacing" textLength="93" x="4281.3" y="711.9951">Randomizer</text></g><!--cluster Mint Ticket--><g id="cluster_Mint Ticket"><rect fill="none" height="222" rx="2.5" ry="2.5" style="stroke:#181818;stroke-width:1.0;" width="180" x="4445.8" y="574"/><text fill="#000000" font-family="sans-serif" font-size="14" font-weight="bold" lengthAdjust="spacing" textLength="86" x="4492.8" y="588.9951">Mint Ticket</text></g><!--cluster Tokens--><g id="cluster_Tokens"><rect fill="none" height="503" rx="2.5" ry="2.5" style="stroke:#181818;stroke-width:1.0;" width="1042" x="363.8" y="488"/><text fill="#000000" font-family="sans-serif" font-size="14" font-weight="bold" lengthAdjust="spacing" textLength="58" x="855.8" y="502.9951">Tokens</text></g><!--cluster fx(text)--><g id="cluster_fx(text)"><rect fill="none" height="222" rx="2.5" ry="2.5" style="stroke:#181818;stroke-width:1.0;" width="152" x="387.8" y="574"/><text fill="#000000" font-family="sans-serif" font-size="14" font-weight="bold" lengthAdjust="spacing" textLength="58" x="434.8" y="588.9951">fx(text)</text></g><!--cluster GenTk--><g id="cluster_GenTk"><rect fill="none" height="436" rx="2.5" ry="2.5" style="stroke:#181818;stroke-width:1.0;" width="818" x="563.8" y="531"/><text fill="#000000" font-family="sans-serif" font-size="14" font-weight="bold" lengthAdjust="spacing" textLength="51" x="947.3" y="545.9951">GenTk</text></g><!--cluster GenTk-light--><g id="cluster_GenTk-light"><rect fill="none" height="369" rx="2.5" ry="2.5" style="stroke:#181818;stroke-width:1.0;" width="383" x="974.8" y="574"/><text fill="#000000" font-family="sans-serif" font-size="14" font-weight="bold" lengthAdjust="spacing" textLength="91" x="1120.8" y="588.9951">GenTk-light</text></g><!--cluster GenTk-full--><g id="cluster_GenTk-full"><rect fill="none" height="369" rx="2.5" ry="2.5" style="stroke:#181818;stroke-width:1.0;" width="363" x="587.8" y="574"/><text fill="#000000" font-family="sans-serif" font-size="14" font-weight="bold" lengthAdjust="spacing" textLength="81" x="728.8" y="588.9951">GenTk-full</text></g><!--cluster FXHASH Marketplace--><g id="cluster_FXHASH Marketplace"><rect fill="none" height="284" rx="2.5" ry="2.5" style="stroke:#181818;stroke-width:1.0;" width="250" x="89.8" y="389"/><text fill="#000000" font-family="sans-serif" font-size="14" font-weight="bold" lengthAdjust="spacing" textLength="163" x="133.3" y="403.9951">FXHASH Marketplace</text></g><!--cluster Collaboration--><g id="cluster_Collaboration"><rect fill="none" height="358" rx="2.5" ry="2.5" style="stroke:#181818;stroke-width:1.0;" width="356" x="3484.8" y="7"/><text fill="#000000" font-family="sans-serif" font-size="14" font-weight="bold" lengthAdjust="spacing" textLength="104" x="3610.8" y="21.9951">Collaboration</text></g><!--cluster FXHASHCollaborationFactory--><g id="cluster_FXHASHCollaborationFactory"><rect fill="none" height="207" rx="2.5" ry="2.5" style="stroke:#181818;stroke-width:1.0;" width="308" x="3508.8" y="50"/><text fill="#000000" font-family="sans-serif" font-size="14" font-weight="bold" lengthAdjust="spacing" textLength="225" x="3550.3" y="64.9951">FXHASHCollaborationFactory</text></g><!--cluster FX HASH Issuer--><g id="cluster_FX HASH Issuer"><rect fill="none" height="284" rx="2.5" ry="2.5" style="stroke:#181818;stroke-width:1.0;" width="206" x="3635.8" y="389"/><text fill="#000000" font-family="sans-serif" font-size="14" font-weight="bold" lengthAdjust="spacing" textLength="121" x="3678.3" y="403.9951">FX HASH Issuer</text></g><!--cluster Minter--><g id="cluster_Minter"><rect fill="none" height="289" rx="2.5" ry="2.5" style="stroke:#181818;stroke-width:1.0;" width="548" x="1564.8" y="531"/><text fill="#000000" font-family="sans-serif" font-size="14" font-weight="bold" lengthAdjust="spacing" textLength="50" x="1813.8" y="545.9951">Minter</text></g><!--cluster Fixed Price Minter--><g id="cluster_Fixed Price Minter"><rect fill="none" height="222" rx="2.5" ry="2.5" style="stroke:#181818;stroke-width:1.0;" width="226" x="1862.8" y="574"/><text fill="#000000" font-family="sans-serif" font-size="14" font-weight="bold" lengthAdjust="spacing" textLength="142" x="1904.8" y="588.9951">Fixed Price Minter</text></g><!--cluster Dutch Auction Minter--><g id="cluster_Dutch Auction Minter"><rect fill="none" height="222" rx="2.5" ry="2.5" style="stroke:#181818;stroke-width:1.0;" width="250" x="1588.8" y="574"/><text fill="#000000" font-family="sans-serif" font-size="14" font-weight="bold" lengthAdjust="spacing" textLength="166" x="1630.8" y="588.9951">Dutch Auction Minter</text></g><!--cluster Moderation--><g id="cluster_Moderation"><rect fill="none" height="521" rx="2.5" ry="2.5" style="stroke:#181818;stroke-width:1.0;" width="952" x="2136.8" y="574"/><text fill="#000000" font-family="sans-serif" font-size="14" font-weight="bold" lengthAdjust="spacing" textLength="89" x="2568.3" y="588.9951">Moderation</text></g><!--cluster FXHASH User Moderation--><g id="cluster_FXHASH User Moderation"><rect fill="none" height="227" rx="2.5" ry="2.5" style="stroke:#181818;stroke-width:1.0;" width="278" x="2786.8" y="844"/><text fill="#000000" font-family="sans-serif" font-size="14" font-weight="bold" lengthAdjust="spacing" textLength="198" x="2826.8" y="858.9951">FXHASH User Moderation</text></g><!--cluster FXHASH Token Moderation--><g id="cluster_FXHASH Token Moderation"><rect fill="none" height="246" rx="2.5" ry="2.5" style="stroke:#181818;stroke-width:1.0;" width="290" x="2160.8" y="697"/><text fill="#000000" font-family="sans-serif" font-size="14" font-weight="bold" lengthAdjust="spacing" textLength="210" x="2200.8" y="711.9951">FXHASH Token Moderation</text></g><!--cluster FXHASH Article Moderation--><g id="cluster_FXHASH Article Moderation"><rect fill="none" height="246" rx="2.5" ry="2.5" style="stroke:#181818;stroke-width:1.0;" width="288" x="2474.8" y="697"/><text fill="#000000" font-family="sans-serif" font-size="14" font-weight="bold" lengthAdjust="spacing" textLength="212" x="2512.8" y="711.9951">FXHASH Article Moderation</text></g><!--cluster Allowed Mint--><g id="cluster_Allowed Mint"><rect fill="none" height="99" rx="2.5" ry="2.5" style="stroke:#181818;stroke-width:1.0;" width="466" x="3865.8" y="574"/><text fill="#000000" font-family="sans-serif" font-size="14" font-weight="bold" lengthAdjust="spacing" textLength="101" x="4048.3" y="588.9951">Allowed Mint</text></g><!--cluster Reserve--><g id="cluster_Reserve"><rect fill="none" height="222" rx="2.5" ry="2.5" style="stroke:#181818;stroke-width:1.0;" width="499" x="3112.8" y="574"/><text fill="#000000" font-family="sans-serif" font-size="14" font-weight="bold" lengthAdjust="spacing" textLength="65" x="3329.8" y="588.9951">Reserve</text></g><!--class rndmizer--><g id="elem_rndmizer"><rect codeLine="3" fill="#F1F1F1" height="48" id="rndmizer" rx="2.5" ry="2.5" style="stroke:#181818;stroke-width:0.5;" width="115" x="4270.3" y="879"/><ellipse cx="4285.3" cy="895" fill="#ADD1B2" rx="11" ry="11" style="stroke:#181818;stroke-width:1.0;"/><path d="M4288.2688,900.6406 Q4287.6906,900.9375 4287.05,901.0781 Q4286.4094,901.2344 4285.7063,901.2344 Q4283.2063,901.2344 4281.8781,899.5938 Q4280.5656,897.9375 4280.5656,894.8125 Q4280.5656,891.6875 4281.8781,890.0313 Q4283.2063,888.375 4285.7063,888.375 Q4286.4094,888.375 4287.05,888.5313 Q4287.7063,888.6875 4288.2688,888.9844 L4288.2688,891.7031 Q4287.6438,891.125 4287.05,890.8594 Q4286.4563,890.5781 4285.8313,890.5781 Q4284.4875,890.5781 4283.8,891.6563 Q4283.1125,892.7188 4283.1125,894.8125 Q4283.1125,896.9063 4283.8,897.9844 Q4284.4875,899.0469 4285.8313,899.0469 Q4286.4563,899.0469 4287.05,898.7813 Q4287.6438,898.5 4288.2688,897.9219 L4288.2688,900.6406 Z " fill="#000000"/><text fill="#000000" font-family="sans-serif" font-size="14" lengthAdjust="spacing" textLength="83" x="4299.3" y="899.8467">Randomizer</text><line style="stroke:#181818;stroke-width:0.5;" x1="4271.3" x2="4384.3" y1="911" y2="911"/><line style="stroke:#181818;stroke-width:0.5;" x1="4271.3" x2="4384.3" y1="919" y2="919"/></g><!--class RandomizerProxy--><g id="elem_RandomizerProxy"><rect codeLine="4" fill="#F1F1F1" height="48" id="RandomizerProxy" rx="2.5" ry="2.5" style="stroke:#181818;stroke-width:0.5;" width="156" x="4249.8" y="732"/><ellipse cx="4264.8" cy="748" fill="#F1F1F1" rx="11" ry="11" style="stroke:#181818;stroke-width:1.0;"/><path d="M4264.5969,743.6719 L4264.5969,747.2969 L4265.5969,747.2969 Q4266.8,747.2969 4267.2844,746.8906 Q4267.7688,746.4844 4267.7688,745.4844 Q4267.7688,744.4844 4267.2844,744.0781 Q4266.8,743.6719 4265.5969,743.6719 L4264.5969,743.6719 Z M4262.1438,741.6094 L4265.5031,741.6094 Q4268.0656,741.6094 4269.1906,742.5313 Q4270.3156,743.4375 4270.3156,745.4844 Q4270.3156,747.5313 4269.1906,748.4531 Q4268.0656,749.3594 4265.5031,749.3594 L4264.5969,749.3594 L4264.5969,754 L4262.1438,754 L4262.1438,741.6094 Z " fill="#000000"/><text fill="#000000" font-family="sans-serif" font-size="14" lengthAdjust="spacing" textLength="124" x="4278.8" y="752.8467">Randomizer Proxy</text><line style="stroke:#181818;stroke-width:0.5;" x1="4250.8" x2="4404.8" y1="764" y2="764"/><line style="stroke:#181818;stroke-width:0.5;" x1="4250.8" x2="4404.8" y1="772" y2="772"/></g><!--class MintTicket--><g id="elem_MintTicket"><rect codeLine="8" fill="#F1F1F1" height="48" id="MintTicket" rx="2.5" ry="2.5" style="stroke:#181818;stroke-width:0.5;" width="107" x="4482.3" y="732"/><ellipse cx="4497.3" cy="748" fill="#ADD1B2" rx="11" ry="11" style="stroke:#181818;stroke-width:1.0;"/><path d="M4500.2688,753.6406 Q4499.6906,753.9375 4499.05,754.0781 Q4498.4094,754.2344 4497.7063,754.2344 Q4495.2063,754.2344 4493.8781,752.5938 Q4492.5656,750.9375 4492.5656,747.8125 Q4492.5656,744.6875 4493.8781,743.0313 Q4495.2063,741.375 4497.7063,741.375 Q4498.4094,741.375 4499.05,741.5313 Q4499.7063,741.6875 4500.2688,741.9844 L4500.2688,744.7031 Q4499.6438,744.125 4499.05,743.8594 Q4498.4563,743.5781 4497.8313,743.5781 Q4496.4875,743.5781 4495.8,744.6563 Q4495.1125,745.7188 4495.1125,747.8125 Q4495.1125,749.9063 4495.8,750.9844 Q4496.4875,752.0469 4497.8313,752.0469 Q4498.4563,752.0469 4499.05,751.7813 Q4499.6438,751.5 4500.2688,750.9219 L4500.2688,753.6406 Z " fill="#000000"/><text fill="#000000" font-family="sans-serif" font-size="14" lengthAdjust="spacing" textLength="75" x="4511.3" y="752.8467">Mint Ticket</text><line style="stroke:#181818;stroke-width:0.5;" x1="4483.3" x2="4588.3" y1="764" y2="764"/><line style="stroke:#181818;stroke-width:0.5;" x1="4483.3" x2="4588.3" y1="772" y2="772"/></g><!--class MintTicketProxy--><g id="elem_MintTicketProxy"><rect codeLine="9" fill="#F1F1F1" height="48" id="MintTicketProxy" rx="2.5" ry="2.5" style="stroke:#181818;stroke-width:0.5;" width="148" x="4461.8" y="609"/><ellipse cx="4476.8" cy="625" fill="#F1F1F1" rx="11" ry="11" style="stroke:#181818;stroke-width:1.0;"/><path d="M4476.5969,620.6719 L4476.5969,624.2969 L4477.5969,624.2969 Q4478.8,624.2969 4479.2844,623.8906 Q4479.7688,623.4844 4479.7688,622.4844 Q4479.7688,621.4844 4479.2844,621.0781 Q4478.8,620.6719 4477.5969,620.6719 L4476.5969,620.6719 Z M4474.1438,618.6094 L4477.5031,618.6094 Q4480.0656,618.6094 4481.1906,619.5313 Q4482.3156,620.4375 4482.3156,622.4844 Q4482.3156,624.5313 4481.1906,625.4531 Q4480.0656,626.3594 4477.5031,626.3594 L4476.5969,626.3594 L4476.5969,631 L4474.1438,631 L4474.1438,618.6094 Z " fill="#000000"/><text fill="#000000" font-family="sans-serif" font-size="14" lengthAdjust="spacing" textLength="116" x="4490.8" y="629.8467">Mint Ticket Proxy</text><line style="stroke:#181818;stroke-width:0.5;" x1="4462.8" x2="4608.8" y1="641" y2="641"/><line style="stroke:#181818;stroke-width:0.5;" x1="4462.8" x2="4608.8" y1="649" y2="649"/></g><!--class fxText--><g id="elem_fxText"><rect codeLine="15" fill="#F1F1F1" height="48" id="fxText" rx="2.5" ry="2.5" style="stroke:#181818;stroke-width:0.5;" width="79" x="424.3" y="732"/><ellipse cx="439.3" cy="748" fill="#ADD1B2" rx="11" ry="11" style="stroke:#181818;stroke-width:1.0;"/><path d="M442.2687,753.6406 Q441.6906,753.9375 441.05,754.0781 Q440.4094,754.2344 439.7062,754.2344 Q437.2062,754.2344 435.8781,752.5938 Q434.5656,750.9375 434.5656,747.8125 Q434.5656,744.6875 435.8781,743.0313 Q437.2062,741.375 439.7062,741.375 Q440.4094,741.375 441.05,741.5313 Q441.7062,741.6875 442.2687,741.9844 L442.2687,744.7031 Q441.6437,744.125 441.05,743.8594 Q440.4562,743.5781 439.8312,743.5781 Q438.4875,743.5781 437.8,744.6563 Q437.1125,745.7188 437.1125,747.8125 Q437.1125,749.9063 437.8,750.9844 Q438.4875,752.0469 439.8312,752.0469 Q440.4562,752.0469 441.05,751.7813 Q441.6437,751.5 442.2687,750.9219 L442.2687,753.6406 Z " fill="#000000"/><text fill="#000000" font-family="sans-serif" font-size="14" lengthAdjust="spacing" textLength="47" x="453.3" y="752.8467">fx(text)</text><line style="stroke:#181818;stroke-width:0.5;" x1="425.3" x2="502.3" y1="764" y2="764"/><line style="stroke:#181818;stroke-width:0.5;" x1="425.3" x2="502.3" y1="772" y2="772"/></g><!--class fxTextProxy--><g id="elem_fxTextProxy"><rect codeLine="16" fill="#F1F1F1" height="48" id="fxTextProxy" rx="2.5" ry="2.5" style="stroke:#181818;stroke-width:0.5;" width="120" x="403.8" y="609"/><ellipse cx="418.8" cy="625" fill="#F1F1F1" rx="11" ry="11" style="stroke:#181818;stroke-width:1.0;"/><path d="M418.5969,620.6719 L418.5969,624.2969 L419.5969,624.2969 Q420.8,624.2969 421.2844,623.8906 Q421.7687,623.4844 421.7687,622.4844 Q421.7687,621.4844 421.2844,621.0781 Q420.8,620.6719 419.5969,620.6719 L418.5969,620.6719 Z M416.1437,618.6094 L419.5031,618.6094 Q422.0656,618.6094 423.1906,619.5313 Q424.3156,620.4375 424.3156,622.4844 Q424.3156,624.5313 423.1906,625.4531 Q422.0656,626.3594 419.5031,626.3594 L418.5969,626.3594 L418.5969,631 L416.1437,631 L416.1437,618.6094 Z " fill="#000000"/><text fill="#000000" font-family="sans-serif" font-size="14" lengthAdjust="spacing" textLength="88" x="432.8" y="629.8467">fx(text) Proxy</text><line style="stroke:#181818;stroke-width:0.5;" x1="404.8" x2="522.8" y1="641" y2="641"/><line style="stroke:#181818;stroke-width:0.5;" x1="404.8" x2="522.8" y1="649" y2="649"/></g><!--class GenTKLight--><g id="elem_GenTKLight"><rect codeLine="20" fill="#F1F1F1" height="48" id="GenTKLight" rx="2.5" ry="2.5" style="stroke:#181818;stroke-width:0.5;" width="113" x="1208.3" y="879"/><ellipse cx="1223.3" cy="895" fill="#ADD1B2" rx="11" ry="11" style="stroke:#181818;stroke-width:1.0;"/><path d="M1226.2688,900.6406 Q1225.6906,900.9375 1225.05,901.0781 Q1224.4094,901.2344 1223.7063,901.2344 Q1221.2063,901.2344 1219.8781,899.5938 Q1218.5656,897.9375 1218.5656,894.8125 Q1218.5656,891.6875 1219.8781,890.0313 Q1221.2063,888.375 1223.7063,888.375 Q1224.4094,888.375 1225.05,888.5313 Q1225.7063,888.6875 1226.2688,888.9844 L1226.2688,891.7031 Q1225.6438,891.125 1225.05,890.8594 Q1224.4563,890.5781 1223.8313,890.5781 Q1222.4875,890.5781 1221.8,891.6563 Q1221.1125,892.7188 1221.1125,894.8125 Q1221.1125,896.9063 1221.8,897.9844 Q1222.4875,899.0469 1223.8313,899.0469 Q1224.4563,899.0469 1225.05,898.7813 Q1225.6438,898.5 1226.2688,897.9219 L1226.2688,900.6406 Z " fill="#000000"/><text fill="#000000" font-family="sans-serif" font-size="14" lengthAdjust="spacing" textLength="81" x="1237.3" y="899.8467">GenTK-light</text><line style="stroke:#181818;stroke-width:0.5;" x1="1209.3" x2="1320.3" y1="911" y2="911"/><line style="stroke:#181818;stroke-width:0.5;" x1="1209.3" x2="1320.3" y1="919" y2="919"/></g><!--class GenTKProxyLight--><g id="elem_GenTKProxyLight"><rect codeLine="21" fill="#F1F1F1" height="48" id="GenTKProxyLight" rx="2.5" ry="2.5" style="stroke:#181818;stroke-width:0.5;" width="154" x="1187.8" y="732"/><ellipse cx="1202.8" cy="748" fill="#F1F1F1" rx="11" ry="11" style="stroke:#181818;stroke-width:1.0;"/><path d="M1202.5969,743.6719 L1202.5969,747.2969 L1203.5969,747.2969 Q1204.8,747.2969 1205.2844,746.8906 Q1205.7688,746.4844 1205.7688,745.4844 Q1205.7688,744.4844 1205.2844,744.0781 Q1204.8,743.6719 1203.5969,743.6719 L1202.5969,743.6719 Z M1200.1438,741.6094 L1203.5031,741.6094 Q1206.0656,741.6094 1207.1906,742.5313 Q1208.3156,743.4375 1208.3156,745.4844 Q1208.3156,747.5313 1207.1906,748.4531 Q1206.0656,749.3594 1203.5031,749.3594 L1202.5969,749.3594 L1202.5969,754 L1200.1438,754 L1200.1438,741.6094 Z " fill="#000000"/><text fill="#000000" font-family="sans-serif" font-size="14" lengthAdjust="spacing" textLength="122" x="1216.8" y="752.8467">GenTK-light Proxy</text><line style="stroke:#181818;stroke-width:0.5;" x1="1188.8" x2="1340.8" y1="764" y2="764"/><line style="stroke:#181818;stroke-width:0.5;" x1="1188.8" x2="1340.8" y1="772" y2="772"/></g><!--class GenTKFactoryLight--><g id="elem_GenTKFactoryLight"><rect codeLine="22" fill="#F1F1F1" height="48" id="GenTKFactoryLight" rx="2.5" ry="2.5" style="stroke:#181818;stroke-width:0.5;" width="162" x="990.8" y="732"/><ellipse cx="1005.8" cy="748" fill="#ADD1B2" rx="11" ry="11" style="stroke:#181818;stroke-width:1.0;"/><path d="M1008.7688,753.6406 Q1008.1906,753.9375 1007.55,754.0781 Q1006.9094,754.2344 1006.2063,754.2344 Q1003.7063,754.2344 1002.3781,752.5938 Q1001.0656,750.9375 1001.0656,747.8125 Q1001.0656,744.6875 1002.3781,743.0313 Q1003.7063,741.375 1006.2063,741.375 Q1006.9094,741.375 1007.55,741.5313 Q1008.2063,741.6875 1008.7688,741.9844 L1008.7688,744.7031 Q1008.1438,744.125 1007.55,743.8594 Q1006.9563,743.5781 1006.3313,743.5781 Q1004.9875,743.5781 1004.3,744.6563 Q1003.6125,745.7188 1003.6125,747.8125 Q1003.6125,749.9063 1004.3,750.9844 Q1004.9875,752.0469 1006.3313,752.0469 Q1006.9563,752.0469 1007.55,751.7813 Q1008.1438,751.5 1008.7688,750.9219 L1008.7688,753.6406 Z " fill="#000000"/><text fill="#000000" font-family="sans-serif" font-size="14" lengthAdjust="spacing" textLength="130" x="1019.8" y="752.8467">GenTKFactory light</text><line style="stroke:#181818;stroke-width:0.5;" x1="991.8" x2="1151.8" y1="764" y2="764"/><line style="stroke:#181818;stroke-width:0.5;" x1="991.8" x2="1151.8" y1="772" y2="772"/></g><!--class GenTKFactoryProxyLight--><g id="elem_GenTKFactoryProxyLight"><rect codeLine="23" fill="#F1F1F1" height="48" id="GenTKFactoryProxyLight" rx="2.5" ry="2.5" style="stroke:#181818;stroke-width:0.5;" width="203" x="1136.3" y="609"/><ellipse cx="1151.3" cy="625" fill="#F1F1F1" rx="11" ry="11" style="stroke:#181818;stroke-width:1.0;"/><path d="M1151.0969,620.6719 L1151.0969,624.2969 L1152.0969,624.2969 Q1153.3,624.2969 1153.7844,623.8906 Q1154.2688,623.4844 1154.2688,622.4844 Q1154.2688,621.4844 1153.7844,621.0781 Q1153.3,620.6719 1152.0969,620.6719 L1151.0969,620.6719 Z M1148.6438,618.6094 L1152.0031,618.6094 Q1154.5656,618.6094 1155.6906,619.5313 Q1156.8156,620.4375 1156.8156,622.4844 Q1156.8156,624.5313 1155.6906,625.4531 Q1154.5656,626.3594 1152.0031,626.3594 L1151.0969,626.3594 L1151.0969,631 L1148.6438,631 L1148.6438,618.6094 Z " fill="#000000"/><text fill="#000000" font-family="sans-serif" font-size="14" lengthAdjust="spacing" textLength="171" x="1165.3" y="629.8467">GenTKFactory light Proxy</text><line style="stroke:#181818;stroke-width:0.5;" x1="1137.3" x2="1338.3" y1="641" y2="641"/><line style="stroke:#181818;stroke-width:0.5;" x1="1137.3" x2="1338.3" y1="649" y2="649"/></g><!--class GenTKFull--><g id="elem_GenTKFull"><rect codeLine="26" fill="#F1F1F1" height="48" id="GenTKFull" rx="2.5" ry="2.5" style="stroke:#181818;stroke-width:0.5;" width="103" x="811.3" y="879"/><ellipse cx="826.3" cy="895" fill="#ADD1B2" rx="11" ry="11" style="stroke:#181818;stroke-width:1.0;"/><path d="M829.2688,900.6406 Q828.6906,900.9375 828.05,901.0781 Q827.4094,901.2344 826.7063,901.2344 Q824.2063,901.2344 822.8781,899.5938 Q821.5656,897.9375 821.5656,894.8125 Q821.5656,891.6875 822.8781,890.0313 Q824.2063,888.375 826.7063,888.375 Q827.4094,888.375 828.05,888.5313 Q828.7063,888.6875 829.2688,888.9844 L829.2688,891.7031 Q828.6438,891.125 828.05,890.8594 Q827.4563,890.5781 826.8313,890.5781 Q825.4875,890.5781 824.8,891.6563 Q824.1125,892.7188 824.1125,894.8125 Q824.1125,896.9063 824.8,897.9844 Q825.4875,899.0469 826.8313,899.0469 Q827.4563,899.0469 828.05,898.7813 Q828.6438,898.5 829.2688,897.9219 L829.2688,900.6406 Z " fill="#000000"/><text fill="#000000" font-family="sans-serif" font-size="14" lengthAdjust="spacing" textLength="71" x="840.3" y="899.8467">GenTK-full</text><line style="stroke:#181818;stroke-width:0.5;" x1="812.3" x2="913.3" y1="911" y2="911"/><line style="stroke:#181818;stroke-width:0.5;" x1="812.3" x2="913.3" y1="919" y2="919"/></g><!--class GenTKProxyFull--><g id="elem_GenTKProxyFull"><rect codeLine="27" fill="#F1F1F1" height="48" id="GenTKProxyFull" rx="2.5" ry="2.5" style="stroke:#181818;stroke-width:0.5;" width="144" x="790.8" y="732"/><ellipse cx="805.8" cy="748" fill="#F1F1F1" rx="11" ry="11" style="stroke:#181818;stroke-width:1.0;"/><path d="M805.5969,743.6719 L805.5969,747.2969 L806.5969,747.2969 Q807.8,747.2969 808.2844,746.8906 Q808.7688,746.4844 808.7688,745.4844 Q808.7688,744.4844 808.2844,744.0781 Q807.8,743.6719 806.5969,743.6719 L805.5969,743.6719 Z M803.1438,741.6094 L806.5031,741.6094 Q809.0656,741.6094 810.1906,742.5313 Q811.3156,743.4375 811.3156,745.4844 Q811.3156,747.5313 810.1906,748.4531 Q809.0656,749.3594 806.5031,749.3594 L805.5969,749.3594 L805.5969,754 L803.1438,754 L803.1438,741.6094 Z " fill="#000000"/><text fill="#000000" font-family="sans-serif" font-size="14" lengthAdjust="spacing" textLength="112" x="819.8" y="752.8467">GenTK-full Proxy</text><line style="stroke:#181818;stroke-width:0.5;" x1="791.8" x2="933.8" y1="764" y2="764"/><line style="stroke:#181818;stroke-width:0.5;" x1="791.8" x2="933.8" y1="772" y2="772"/></g><!--class GenTKFactoryFull--><g id="elem_GenTKFactoryFull"><rect codeLine="28" fill="#F1F1F1" height="48" id="GenTKFactoryFull" rx="2.5" ry="2.5" style="stroke:#181818;stroke-width:0.5;" width="152" x="603.8" y="732"/><ellipse cx="618.8" cy="748" fill="#ADD1B2" rx="11" ry="11" style="stroke:#181818;stroke-width:1.0;"/><path d="M621.7688,753.6406 Q621.1906,753.9375 620.55,754.0781 Q619.9094,754.2344 619.2063,754.2344 Q616.7063,754.2344 615.3781,752.5938 Q614.0656,750.9375 614.0656,747.8125 Q614.0656,744.6875 615.3781,743.0313 Q616.7063,741.375 619.2063,741.375 Q619.9094,741.375 620.55,741.5313 Q621.2063,741.6875 621.7688,741.9844 L621.7688,744.7031 Q621.1438,744.125 620.55,743.8594 Q619.9563,743.5781 619.3313,743.5781 Q617.9875,743.5781 617.3,744.6563 Q616.6125,745.7188 616.6125,747.8125 Q616.6125,749.9063 617.3,750.9844 Q617.9875,752.0469 619.3313,752.0469 Q619.9563,752.0469 620.55,751.7813 Q621.1438,751.5 621.7688,750.9219 L621.7688,753.6406 Z " fill="#000000"/><text fill="#000000" font-family="sans-serif" font-size="14" lengthAdjust="spacing" textLength="120" x="632.8" y="752.8467">GenTKFactory full</text><line style="stroke:#181818;stroke-width:0.5;" x1="604.8" x2="754.8" y1="764" y2="764"/><line style="stroke:#181818;stroke-width:0.5;" x1="604.8" x2="754.8" y1="772" y2="772"/></g><!--class GenTKFactoryProxyFull--><g id="elem_GenTKFactoryProxyFull"><rect codeLine="29" fill="#F1F1F1" height="48" id="GenTKFactoryProxyFull" rx="2.5" ry="2.5" style="stroke:#181818;stroke-width:0.5;" width="193" x="741.3" y="609"/><ellipse cx="756.3" cy="625" fill="#F1F1F1" rx="11" ry="11" style="stroke:#181818;stroke-width:1.0;"/><path d="M756.0969,620.6719 L756.0969,624.2969 L757.0969,624.2969 Q758.3,624.2969 758.7844,623.8906 Q759.2688,623.4844 759.2688,622.4844 Q759.2688,621.4844 758.7844,621.0781 Q758.3,620.6719 757.0969,620.6719 L756.0969,620.6719 Z M753.6438,618.6094 L757.0031,618.6094 Q759.5656,618.6094 760.6906,619.5313 Q761.8156,620.4375 761.8156,622.4844 Q761.8156,624.5313 760.6906,625.4531 Q759.5656,626.3594 757.0031,626.3594 L756.0969,626.3594 L756.0969,631 L753.6438,631 L753.6438,618.6094 Z " fill="#000000"/><text fill="#000000" font-family="sans-serif" font-size="14" lengthAdjust="spacing" textLength="161" x="770.3" y="629.8467">GenTKFactory full Proxy</text><line style="stroke:#181818;stroke-width:0.5;" x1="742.3" x2="933.3" y1="641" y2="641"/><line style="stroke:#181818;stroke-width:0.5;" x1="742.3" x2="933.3" y1="649" y2="649"/></g><!--class FXHASHMarketplace--><g id="elem_FXHASHMarketplace"><rect codeLine="35" fill="#F1F1F1" height="48" id="FXHASHMarketplace" rx="2.5" ry="2.5" style="stroke:#181818;stroke-width:0.5;" width="176" x="147.8" y="609"/><ellipse cx="162.8" cy="625" fill="#ADD1B2" rx="11" ry="11" style="stroke:#181818;stroke-width:1.0;"/><path d="M165.7688,630.6406 Q165.1906,630.9375 164.55,631.0781 Q163.9094,631.2344 163.2063,631.2344 Q160.7063,631.2344 159.3781,629.5938 Q158.0656,627.9375 158.0656,624.8125 Q158.0656,621.6875 159.3781,620.0313 Q160.7063,618.375 163.2063,618.375 Q163.9094,618.375 164.55,618.5313 Q165.2063,618.6875 165.7688,618.9844 L165.7688,621.7031 Q165.1438,621.125 164.55,620.8594 Q163.9563,620.5781 163.3313,620.5781 Q161.9875,620.5781 161.3,621.6563 Q160.6125,622.7188 160.6125,624.8125 Q160.6125,626.9063 161.3,627.9844 Q161.9875,629.0469 163.3313,629.0469 Q163.9563,629.0469 164.55,628.7813 Q165.1438,628.5 165.7688,627.9219 L165.7688,630.6406 Z " fill="#000000"/><text fill="#000000" font-family="sans-serif" font-size="14" lengthAdjust="spacing" textLength="144" x="176.8" y="629.8467">FXHASH marketplace</text><line style="stroke:#181818;stroke-width:0.5;" x1="148.8" x2="322.8" y1="641" y2="641"/><line style="stroke:#181818;stroke-width:0.5;" x1="148.8" x2="322.8" y1="649" y2="649"/></g><!--class FXHASHMarketplaceProxy--><g id="elem_FXHASHMarketplaceProxy"><rect codeLine="36" fill="#F1F1F1" height="48" id="FXHASHMarketplaceProxy" rx="2.5" ry="2.5" style="stroke:#181818;stroke-width:0.5;" width="217" x="106.3" y="424"/><ellipse cx="121.3" cy="440" fill="#F1F1F1" rx="11" ry="11" style="stroke:#181818;stroke-width:1.0;"/><path d="M121.0969,435.6719 L121.0969,439.2969 L122.0969,439.2969 Q123.3,439.2969 123.7844,438.8906 Q124.2688,438.4844 124.2688,437.4844 Q124.2688,436.4844 123.7844,436.0781 Q123.3,435.6719 122.0969,435.6719 L121.0969,435.6719 Z M118.6438,433.6094 L122.0031,433.6094 Q124.5656,433.6094 125.6906,434.5313 Q126.8156,435.4375 126.8156,437.4844 Q126.8156,439.5313 125.6906,440.4531 Q124.5656,441.3594 122.0031,441.3594 L121.0969,441.3594 L121.0969,446 L118.6438,446 L118.6438,433.6094 Z " fill="#000000"/><text fill="#000000" font-family="sans-serif" font-size="14" lengthAdjust="spacing" textLength="185" x="135.3" y="444.8467">FXHASH marketplace Proxy</text><line style="stroke:#181818;stroke-width:0.5;" x1="107.3" x2="322.3" y1="456" y2="456"/><line style="stroke:#181818;stroke-width:0.5;" x1="107.3" x2="322.3" y1="464" y2="464"/></g><!--class FXHASHCollab--><g id="elem_FXHASHCollab"><rect codeLine="41" fill="#F1F1F1" height="48" id="FXHASHCollab" rx="2.5" ry="2.5" style="stroke:#181818;stroke-width:0.5;" width="133" x="3612.3" y="301"/><ellipse cx="3627.3" cy="317" fill="#ADD1B2" rx="11" ry="11" style="stroke:#181818;stroke-width:1.0;"/><path d="M3630.2688,322.6406 Q3629.6906,322.9375 3629.05,323.0781 Q3628.4094,323.2344 3627.7063,323.2344 Q3625.2063,323.2344 3623.8781,321.5938 Q3622.5656,319.9375 3622.5656,316.8125 Q3622.5656,313.6875 3623.8781,312.0313 Q3625.2063,310.375 3627.7063,310.375 Q3628.4094,310.375 3629.05,310.5313 Q3629.7063,310.6875 3630.2688,310.9844 L3630.2688,313.7031 Q3629.6438,313.125 3629.05,312.8594 Q3628.4563,312.5781 3627.8313,312.5781 Q3626.4875,312.5781 3625.8,313.6563 Q3625.1125,314.7188 3625.1125,316.8125 Q3625.1125,318.9063 3625.8,319.9844 Q3626.4875,321.0469 3627.8313,321.0469 Q3628.4563,321.0469 3629.05,320.7813 Q3629.6438,320.5 3630.2688,319.9219 L3630.2688,322.6406 Z " fill="#000000"/><text fill="#000000" font-family="sans-serif" font-size="14" lengthAdjust="spacing" textLength="101" x="3641.3" y="321.8467">FXHASH Collab</text><line style="stroke:#181818;stroke-width:0.5;" x1="3613.3" x2="3744.3" y1="333" y2="333"/><line style="stroke:#181818;stroke-width:0.5;" x1="3613.3" x2="3744.3" y1="341" y2="341"/></g><!--class fxcollabfactory--><g id="elem_fxcollabfactory"><rect codeLine="44" fill="#F1F1F1" height="48" id="fxcollabfactory" rx="2.5" ry="2.5" style="stroke:#181818;stroke-width:0.5;" width="235" x="3535.3" y="193"/><ellipse cx="3550.3" cy="209" fill="#ADD1B2" rx="11" ry="11" style="stroke:#181818;stroke-width:1.0;"/><path d="M3553.2688,214.6406 Q3552.6906,214.9375 3552.05,215.0781 Q3551.4094,215.2344 3550.7063,215.2344 Q3548.2063,215.2344 3546.8781,213.5938 Q3545.5656,211.9375 3545.5656,208.8125 Q3545.5656,205.6875 3546.8781,204.0313 Q3548.2063,202.375 3550.7063,202.375 Q3551.4094,202.375 3552.05,202.5313 Q3552.7063,202.6875 3553.2688,202.9844 L3553.2688,205.7031 Q3552.6438,205.125 3552.05,204.8594 Q3551.4563,204.5781 3550.8313,204.5781 Q3549.4875,204.5781 3548.8,205.6563 Q3548.1125,206.7188 3548.1125,208.8125 Q3548.1125,210.9063 3548.8,211.9844 Q3549.4875,213.0469 3550.8313,213.0469 Q3551.4563,213.0469 3552.05,212.7813 Q3552.6438,212.5 3553.2688,211.9219 L3553.2688,214.6406 Z " fill="#000000"/><text fill="#000000" font-family="sans-serif" font-size="14" lengthAdjust="spacing" textLength="203" x="3564.3" y="213.8467">FXHASH Collaboration Factory</text><line style="stroke:#181818;stroke-width:0.5;" x1="3536.3" x2="3769.3" y1="225" y2="225"/><line style="stroke:#181818;stroke-width:0.5;" x1="3536.3" x2="3769.3" y1="233" y2="233"/></g><!--class FXHASHCollaborationFactoryProxy--><g id="elem_FXHASHCollaborationFactoryProxy"><rect codeLine="45" fill="#F1F1F1" height="48" id="FXHASHCollaborationFactoryProxy" rx="2.5" ry="2.5" style="stroke:#181818;stroke-width:0.5;" width="276" x="3524.8" y="85"/><ellipse cx="3539.8" cy="101" fill="#F1F1F1" rx="11" ry="11" style="stroke:#181818;stroke-width:1.0;"/><path d="M3539.5969,96.6719 L3539.5969,100.2969 L3540.5969,100.2969 Q3541.8,100.2969 3542.2844,99.8906 Q3542.7688,99.4844 3542.7688,98.4844 Q3542.7688,97.4844 3542.2844,97.0781 Q3541.8,96.6719 3540.5969,96.6719 L3539.5969,96.6719 Z M3537.1438,94.6094 L3540.5031,94.6094 Q3543.0656,94.6094 3544.1906,95.5313 Q3545.3156,96.4375 3545.3156,98.4844 Q3545.3156,100.5313 3544.1906,101.4531 Q3543.0656,102.3594 3540.5031,102.3594 L3539.5969,102.3594 L3539.5969,107 L3537.1438,107 L3537.1438,94.6094 Z " fill="#000000"/><text fill="#000000" font-family="sans-serif" font-size="14" lengthAdjust="spacing" textLength="244" x="3553.8" y="105.8467">FXHASH Collaboration Factory Proxy</text><line style="stroke:#181818;stroke-width:0.5;" x1="3525.8" x2="3799.8" y1="117" y2="117"/><line style="stroke:#181818;stroke-width:0.5;" x1="3525.8" x2="3799.8" y1="125" y2="125"/></g><!--class FXHASHIssuer--><g id="elem_FXHASHIssuer"><rect codeLine="50" fill="#F1F1F1" height="48" id="FXHASHIssuer" rx="2.5" ry="2.5" style="stroke:#181818;stroke-width:0.5;" width="133" x="3672.3" y="609"/><ellipse cx="3687.3" cy="625" fill="#ADD1B2" rx="11" ry="11" style="stroke:#181818;stroke-width:1.0;"/><path d="M3690.2688,630.6406 Q3689.6906,630.9375 3689.05,631.0781 Q3688.4094,631.2344 3687.7063,631.2344 Q3685.2063,631.2344 3683.8781,629.5938 Q3682.5656,627.9375 3682.5656,624.8125 Q3682.5656,621.6875 3683.8781,620.0313 Q3685.2063,618.375 3687.7063,618.375 Q3688.4094,618.375 3689.05,618.5313 Q3689.7063,618.6875 3690.2688,618.9844 L3690.2688,621.7031 Q3689.6438,621.125 3689.05,620.8594 Q3688.4563,620.5781 3687.8313,620.5781 Q3686.4875,620.5781 3685.8,621.6563 Q3685.1125,622.7188 3685.1125,624.8125 Q3685.1125,626.9063 3685.8,627.9844 Q3686.4875,629.0469 3687.8313,629.0469 Q3688.4563,629.0469 3689.05,628.7813 Q3689.6438,628.5 3690.2688,627.9219 L3690.2688,630.6406 Z " fill="#000000"/><text fill="#000000" font-family="sans-serif" font-size="14" lengthAdjust="spacing" textLength="101" x="3701.3" y="629.8467">FXHASH Issuer</text><line style="stroke:#181818;stroke-width:0.5;" x1="3673.3" x2="3804.3" y1="641" y2="641"/><line style="stroke:#181818;stroke-width:0.5;" x1="3673.3" x2="3804.3" y1="649" y2="649"/></g><!--class FXHASHIssuerProxy--><g id="elem_FXHASHIssuerProxy"><rect codeLine="51" fill="#F1F1F1" height="48" id="FXHASHIssuerProxy" rx="2.5" ry="2.5" style="stroke:#181818;stroke-width:0.5;" width="174" x="3651.8" y="424"/><ellipse cx="3666.8" cy="440" fill="#F1F1F1" rx="11" ry="11" style="stroke:#181818;stroke-width:1.0;"/><path d="M3666.5969,435.6719 L3666.5969,439.2969 L3667.5969,439.2969 Q3668.8,439.2969 3669.2844,438.8906 Q3669.7688,438.4844 3669.7688,437.4844 Q3669.7688,436.4844 3669.2844,436.0781 Q3668.8,435.6719 3667.5969,435.6719 L3666.5969,435.6719 Z M3664.1438,433.6094 L3667.5031,433.6094 Q3670.0656,433.6094 3671.1906,434.5313 Q3672.3156,435.4375 3672.3156,437.4844 Q3672.3156,439.5313 3671.1906,440.4531 Q3670.0656,441.3594 3667.5031,441.3594 L3666.5969,441.3594 L3666.5969,446 L3664.1438,446 L3664.1438,433.6094 Z " fill="#000000"/><text fill="#000000" font-family="sans-serif" font-size="14" lengthAdjust="spacing" textLength="142" x="3680.8" y="444.8467">FXHASH Issuer Proxy</text><line style="stroke:#181818;stroke-width:0.5;" x1="3652.8" x2="3824.8" y1="456" y2="456"/><line style="stroke:#181818;stroke-width:0.5;" x1="3652.8" x2="3824.8" y1="464" y2="464"/></g><!--class FixedPriceMinter--><g id="elem_FixedPriceMinter"><rect codeLine="57" fill="#F1F1F1" height="48" id="FixedPriceMinter" rx="2.5" ry="2.5" style="stroke:#181818;stroke-width:0.5;" width="153" x="1899.3" y="732"/><ellipse cx="1914.3" cy="748" fill="#ADD1B2" rx="11" ry="11" style="stroke:#181818;stroke-width:1.0;"/><path d="M1917.2688,753.6406 Q1916.6906,753.9375 1916.05,754.0781 Q1915.4094,754.2344 1914.7063,754.2344 Q1912.2063,754.2344 1910.8781,752.5938 Q1909.5656,750.9375 1909.5656,747.8125 Q1909.5656,744.6875 1910.8781,743.0313 Q1912.2063,741.375 1914.7063,741.375 Q1915.4094,741.375 1916.05,741.5313 Q1916.7063,741.6875 1917.2688,741.9844 L1917.2688,744.7031 Q1916.6438,744.125 1916.05,743.8594 Q1915.4563,743.5781 1914.8313,743.5781 Q1913.4875,743.5781 1912.8,744.6563 Q1912.1125,745.7188 1912.1125,747.8125 Q1912.1125,749.9063 1912.8,750.9844 Q1913.4875,752.0469 1914.8313,752.0469 Q1915.4563,752.0469 1916.05,751.7813 Q1916.6438,751.5 1917.2688,750.9219 L1917.2688,753.6406 Z " fill="#000000"/><text fill="#000000" font-family="sans-serif" font-size="14" lengthAdjust="spacing" textLength="121" x="1928.3" y="752.8467">Fixed Price Minter</text><line style="stroke:#181818;stroke-width:0.5;" x1="1900.3" x2="2051.3" y1="764" y2="764"/><line style="stroke:#181818;stroke-width:0.5;" x1="1900.3" x2="2051.3" y1="772" y2="772"/></g><!--class FixedPriceMinterProxy--><g id="elem_FixedPriceMinterProxy"><rect codeLine="58" fill="#F1F1F1" height="48" id="FixedPriceMinterProxy" rx="2.5" ry="2.5" style="stroke:#181818;stroke-width:0.5;" width="194" x="1878.8" y="609"/><ellipse cx="1893.8" cy="625" fill="#F1F1F1" rx="11" ry="11" style="stroke:#181818;stroke-width:1.0;"/><path d="M1893.5969,620.6719 L1893.5969,624.2969 L1894.5969,624.2969 Q1895.8,624.2969 1896.2844,623.8906 Q1896.7688,623.4844 1896.7688,622.4844 Q1896.7688,621.4844 1896.2844,621.0781 Q1895.8,620.6719 1894.5969,620.6719 L1893.5969,620.6719 Z M1891.1438,618.6094 L1894.5031,618.6094 Q1897.0656,618.6094 1898.1906,619.5313 Q1899.3156,620.4375 1899.3156,622.4844 Q1899.3156,624.5313 1898.1906,625.4531 Q1897.0656,626.3594 1894.5031,626.3594 L1893.5969,626.3594 L1893.5969,631 L1891.1438,631 L1891.1438,618.6094 Z " fill="#000000"/><text fill="#000000" font-family="sans-serif" font-size="14" lengthAdjust="spacing" textLength="162" x="1907.8" y="629.8467">Fixed Price Minter Proxy</text><line style="stroke:#181818;stroke-width:0.5;" x1="1879.8" x2="2071.8" y1="641" y2="641"/><line style="stroke:#181818;stroke-width:0.5;" x1="1879.8" x2="2071.8" y1="649" y2="649"/></g><!--class DutchAuctionMinter--><g id="elem_DutchAuctionMinter"><rect codeLine="62" fill="#F1F1F1" height="48" id="DutchAuctionMinter" rx="2.5" ry="2.5" style="stroke:#181818;stroke-width:0.5;" width="177" x="1625.3" y="732"/><ellipse cx="1640.3" cy="748" fill="#ADD1B2" rx="11" ry="11" style="stroke:#181818;stroke-width:1.0;"/><path d="M1643.2688,753.6406 Q1642.6906,753.9375 1642.05,754.0781 Q1641.4094,754.2344 1640.7063,754.2344 Q1638.2063,754.2344 1636.8781,752.5938 Q1635.5656,750.9375 1635.5656,747.8125 Q1635.5656,744.6875 1636.8781,743.0313 Q1638.2063,741.375 1640.7063,741.375 Q1641.4094,741.375 1642.05,741.5313 Q1642.7063,741.6875 1643.2688,741.9844 L1643.2688,744.7031 Q1642.6438,744.125 1642.05,743.8594 Q1641.4563,743.5781 1640.8313,743.5781 Q1639.4875,743.5781 1638.8,744.6563 Q1638.1125,745.7188 1638.1125,747.8125 Q1638.1125,749.9063 1638.8,750.9844 Q1639.4875,752.0469 1640.8313,752.0469 Q1641.4563,752.0469 1642.05,751.7813 Q1642.6438,751.5 1643.2688,750.9219 L1643.2688,753.6406 Z " fill="#000000"/><text fill="#000000" font-family="sans-serif" font-size="14" lengthAdjust="spacing" textLength="145" x="1654.3" y="752.8467">Dutch Auction Minter</text><line style="stroke:#181818;stroke-width:0.5;" x1="1626.3" x2="1801.3" y1="764" y2="764"/><line style="stroke:#181818;stroke-width:0.5;" x1="1626.3" x2="1801.3" y1="772" y2="772"/></g><!--class DutchAuctionMinterProxy--><g id="elem_DutchAuctionMinterProxy"><rect codeLine="63" fill="#F1F1F1" height="48" id="DutchAuctionMinterProxy" rx="2.5" ry="2.5" style="stroke:#181818;stroke-width:0.5;" width="218" x="1604.8" y="609"/><ellipse cx="1619.8" cy="625" fill="#F1F1F1" rx="11" ry="11" style="stroke:#181818;stroke-width:1.0;"/><path d="M1619.5969,620.6719 L1619.5969,624.2969 L1620.5969,624.2969 Q1621.8,624.2969 1622.2844,623.8906 Q1622.7688,623.4844 1622.7688,622.4844 Q1622.7688,621.4844 1622.2844,621.0781 Q1621.8,620.6719 1620.5969,620.6719 L1619.5969,620.6719 Z M1617.1438,618.6094 L1620.5031,618.6094 Q1623.0656,618.6094 1624.1906,619.5313 Q1625.3156,620.4375 1625.3156,622.4844 Q1625.3156,624.5313 1624.1906,625.4531 Q1623.0656,626.3594 1620.5031,626.3594 L1619.5969,626.3594 L1619.5969,631 L1617.1438,631 L1617.1438,618.6094 Z " fill="#000000"/><text fill="#000000" font-family="sans-serif" font-size="14" lengthAdjust="spacing" textLength="186" x="1633.8" y="629.8467">Dutch Auction Minter Proxy</text><line style="stroke:#181818;stroke-width:0.5;" x1="1605.8" x2="1821.8" y1="641" y2="641"/><line style="stroke:#181818;stroke-width:0.5;" x1="1605.8" x2="1821.8" y1="649" y2="649"/></g><!--class FXHASHModeration--><g id="elem_FXHASHModeration"><rect codeLine="70" fill="#F1F1F1" height="48" id="FXHASHModeration" rx="2.5" ry="2.5" style="stroke:#181818;stroke-width:0.5;" width="169" x="2534.3" y="609"/><ellipse cx="2549.3" cy="625" fill="#ADD1B2" rx="11" ry="11" style="stroke:#181818;stroke-width:1.0;"/><path d="M2552.2688,630.6406 Q2551.6906,630.9375 2551.05,631.0781 Q2550.4094,631.2344 2549.7063,631.2344 Q2547.2063,631.2344 2545.8781,629.5938 Q2544.5656,627.9375 2544.5656,624.8125 Q2544.5656,621.6875 2545.8781,620.0313 Q2547.2063,618.375 2549.7063,618.375 Q2550.4094,618.375 2551.05,618.5313 Q2551.7063,618.6875 2552.2688,618.9844 L2552.2688,621.7031 Q2551.6438,621.125 2551.05,620.8594 Q2550.4563,620.5781 2549.8313,620.5781 Q2548.4875,620.5781 2547.8,621.6563 Q2547.1125,622.7188 2547.1125,624.8125 Q2547.1125,626.9063 2547.8,627.9844 Q2548.4875,629.0469 2549.8313,629.0469 Q2550.4563,629.0469 2551.05,628.7813 Q2551.6438,628.5 2552.2688,627.9219 L2552.2688,630.6406 Z " fill="#000000"/><text fill="#000000" font-family="sans-serif" font-size="14" lengthAdjust="spacing" textLength="137" x="2563.3" y="629.8467">FXHASH Moderation</text><line style="stroke:#181818;stroke-width:0.5;" x1="2535.3" x2="2702.3" y1="641" y2="641"/><line style="stroke:#181818;stroke-width:0.5;" x1="2535.3" x2="2702.3" y1="649" y2="649"/></g><!--class FXHASHUserModeration--><g id="elem_FXHASHUserModeration"><rect codeLine="72" fill="#F1F1F1" height="48" id="FXHASHUserModeration" rx="2.5" ry="2.5" style="stroke:#181818;stroke-width:0.5;" width="205" x="2823.3" y="1007"/><ellipse cx="2838.3" cy="1023" fill="#ADD1B2" rx="11" ry="11" style="stroke:#181818;stroke-width:1.0;"/><path d="M2841.2688,1028.6406 Q2840.6906,1028.9375 2840.05,1029.0781 Q2839.4094,1029.2344 2838.7063,1029.2344 Q2836.2063,1029.2344 2834.8781,1027.5938 Q2833.5656,1025.9375 2833.5656,1022.8125 Q2833.5656,1019.6875 2834.8781,1018.0313 Q2836.2063,1016.375 2838.7063,1016.375 Q2839.4094,1016.375 2840.05,1016.5313 Q2840.7063,1016.6875 2841.2688,1016.9844 L2841.2688,1019.7031 Q2840.6438,1019.125 2840.05,1018.8594 Q2839.4563,1018.5781 2838.8313,1018.5781 Q2837.4875,1018.5781 2836.8,1019.6563 Q2836.1125,1020.7188 2836.1125,1022.8125 Q2836.1125,1024.9063 2836.8,1025.9844 Q2837.4875,1027.0469 2838.8313,1027.0469 Q2839.4563,1027.0469 2840.05,1026.7813 Q2840.6438,1026.5 2841.2688,1025.9219 L2841.2688,1028.6406 Z " fill="#000000"/><text fill="#000000" font-family="sans-serif" font-size="14" lengthAdjust="spacing" textLength="173" x="2852.3" y="1027.8467">FXHASH User Moderation</text><line style="stroke:#181818;stroke-width:0.5;" x1="2824.3" x2="3027.3" y1="1039" y2="1039"/><line style="stroke:#181818;stroke-width:0.5;" x1="2824.3" x2="3027.3" y1="1047" y2="1047"/></g><!--class FXHASHUserModerationProxy--><g id="elem_FXHASHUserModerationProxy"><rect codeLine="73" fill="#F1F1F1" height="48" id="FXHASHUserModerationProxy" rx="2.5" ry="2.5" style="stroke:#181818;stroke-width:0.5;" width="246" x="2802.8" y="879"/><ellipse cx="2817.8" cy="895" fill="#F1F1F1" rx="11" ry="11" style="stroke:#181818;stroke-width:1.0;"/><path d="M2817.5969,890.6719 L2817.5969,894.2969 L2818.5969,894.2969 Q2819.8,894.2969 2820.2844,893.8906 Q2820.7688,893.4844 2820.7688,892.4844 Q2820.7688,891.4844 2820.2844,891.0781 Q2819.8,890.6719 2818.5969,890.6719 L2817.5969,890.6719 Z M2815.1438,888.6094 L2818.5031,888.6094 Q2821.0656,888.6094 2822.1906,889.5313 Q2823.3156,890.4375 2823.3156,892.4844 Q2823.3156,894.5313 2822.1906,895.4531 Q2821.0656,896.3594 2818.5031,896.3594 L2817.5969,896.3594 L2817.5969,901 L2815.1438,901 L2815.1438,888.6094 Z " fill="#000000"/><text fill="#000000" font-family="sans-serif" font-size="14" lengthAdjust="spacing" textLength="214" x="2831.8" y="899.8467">FXHASH User Moderation Proxy</text><line style="stroke:#181818;stroke-width:0.5;" x1="2803.8" x2="3047.8" y1="911" y2="911"/><line style="stroke:#181818;stroke-width:0.5;" x1="2803.8" x2="3047.8" y1="919" y2="919"/></g><!--class FXHASHTokenModeration--><g id="elem_FXHASHTokenModeration"><rect codeLine="76" fill="#F1F1F1" height="48" id="FXHASHTokenModeration" rx="2.5" ry="2.5" style="stroke:#181818;stroke-width:0.5;" width="217" x="2197.3" y="879"/><ellipse cx="2212.3" cy="895" fill="#ADD1B2" rx="11" ry="11" style="stroke:#181818;stroke-width:1.0;"/><path d="M2215.2688,900.6406 Q2214.6906,900.9375 2214.05,901.0781 Q2213.4094,901.2344 2212.7063,901.2344 Q2210.2063,901.2344 2208.8781,899.5938 Q2207.5656,897.9375 2207.5656,894.8125 Q2207.5656,891.6875 2208.8781,890.0313 Q2210.2063,888.375 2212.7063,888.375 Q2213.4094,888.375 2214.05,888.5313 Q2214.7063,888.6875 2215.2688,888.9844 L2215.2688,891.7031 Q2214.6438,891.125 2214.05,890.8594 Q2213.4563,890.5781 2212.8313,890.5781 Q2211.4875,890.5781 2210.8,891.6563 Q2210.1125,892.7188 2210.1125,894.8125 Q2210.1125,896.9063 2210.8,897.9844 Q2211.4875,899.0469 2212.8313,899.0469 Q2213.4563,899.0469 2214.05,898.7813 Q2214.6438,898.5 2215.2688,897.9219 L2215.2688,900.6406 Z " fill="#000000"/><text fill="#000000" font-family="sans-serif" font-size="14" lengthAdjust="spacing" textLength="185" x="2226.3" y="899.8467">FXHASH Token Moderation</text><line style="stroke:#181818;stroke-width:0.5;" x1="2198.3" x2="2413.3" y1="911" y2="911"/><line style="stroke:#181818;stroke-width:0.5;" x1="2198.3" x2="2413.3" y1="919" y2="919"/></g><!--class FXHASHTokenModerationProxy--><g id="elem_FXHASHTokenModerationProxy"><rect codeLine="77" fill="#F1F1F1" height="48" id="FXHASHTokenModerationProxy" rx="2.5" ry="2.5" style="stroke:#181818;stroke-width:0.5;" width="258" x="2176.8" y="732"/><ellipse cx="2191.8" cy="748" fill="#F1F1F1" rx="11" ry="11" style="stroke:#181818;stroke-width:1.0;"/><path d="M2191.5969,743.6719 L2191.5969,747.2969 L2192.5969,747.2969 Q2193.8,747.2969 2194.2844,746.8906 Q2194.7688,746.4844 2194.7688,745.4844 Q2194.7688,744.4844 2194.2844,744.0781 Q2193.8,743.6719 2192.5969,743.6719 L2191.5969,743.6719 Z M2189.1438,741.6094 L2192.5031,741.6094 Q2195.0656,741.6094 2196.1906,742.5313 Q2197.3156,743.4375 2197.3156,745.4844 Q2197.3156,747.5313 2196.1906,748.4531 Q2195.0656,749.3594 2192.5031,749.3594 L2191.5969,749.3594 L2191.5969,754 L2189.1438,754 L2189.1438,741.6094 Z " fill="#000000"/><text fill="#000000" font-family="sans-serif" font-size="14" lengthAdjust="spacing" textLength="226" x="2205.8" y="752.8467">FXHASH Token Moderation Proxy</text><line style="stroke:#181818;stroke-width:0.5;" x1="2177.8" x2="2433.8" y1="764" y2="764"/><line style="stroke:#181818;stroke-width:0.5;" x1="2177.8" x2="2433.8" y1="772" y2="772"/></g><!--class FXHASHArticleModeration--><g id="elem_FXHASHArticleModeration"><rect codeLine="80" fill="#F1F1F1" height="48" id="FXHASHArticleModeration" rx="2.5" ry="2.5" style="stroke:#181818;stroke-width:0.5;" width="215" x="2511.3" y="879"/><ellipse cx="2526.3" cy="895" fill="#ADD1B2" rx="11" ry="11" style="stroke:#181818;stroke-width:1.0;"/><path d="M2529.2688,900.6406 Q2528.6906,900.9375 2528.05,901.0781 Q2527.4094,901.2344 2526.7063,901.2344 Q2524.2063,901.2344 2522.8781,899.5938 Q2521.5656,897.9375 2521.5656,894.8125 Q2521.5656,891.6875 2522.8781,890.0313 Q2524.2063,888.375 2526.7063,888.375 Q2527.4094,888.375 2528.05,888.5313 Q2528.7063,888.6875 2529.2688,888.9844 L2529.2688,891.7031 Q2528.6438,891.125 2528.05,890.8594 Q2527.4563,890.5781 2526.8313,890.5781 Q2525.4875,890.5781 2524.8,891.6563 Q2524.1125,892.7188 2524.1125,894.8125 Q2524.1125,896.9063 2524.8,897.9844 Q2525.4875,899.0469 2526.8313,899.0469 Q2527.4563,899.0469 2528.05,898.7813 Q2528.6438,898.5 2529.2688,897.9219 L2529.2688,900.6406 Z " fill="#000000"/><text fill="#000000" font-family="sans-serif" font-size="14" lengthAdjust="spacing" textLength="183" x="2540.3" y="899.8467">FXHASH Article Moderation</text><line style="stroke:#181818;stroke-width:0.5;" x1="2512.3" x2="2725.3" y1="911" y2="911"/><line style="stroke:#181818;stroke-width:0.5;" x1="2512.3" x2="2725.3" y1="919" y2="919"/></g><!--class FXHASHArticleModerationProxy--><g id="elem_FXHASHArticleModerationProxy"><rect codeLine="81" fill="#F1F1F1" height="48" id="FXHASHArticleModerationProxy" rx="2.5" ry="2.5" style="stroke:#181818;stroke-width:0.5;" width="256" x="2490.8" y="732"/><ellipse cx="2505.8" cy="748" fill="#F1F1F1" rx="11" ry="11" style="stroke:#181818;stroke-width:1.0;"/><path d="M2505.5969,743.6719 L2505.5969,747.2969 L2506.5969,747.2969 Q2507.8,747.2969 2508.2844,746.8906 Q2508.7688,746.4844 2508.7688,745.4844 Q2508.7688,744.4844 2508.2844,744.0781 Q2507.8,743.6719 2506.5969,743.6719 L2505.5969,743.6719 Z M2503.1438,741.6094 L2506.5031,741.6094 Q2509.0656,741.6094 2510.1906,742.5313 Q2511.3156,743.4375 2511.3156,745.4844 Q2511.3156,747.5313 2510.1906,748.4531 Q2509.0656,749.3594 2506.5031,749.3594 L2505.5969,749.3594 L2505.5969,754 L2503.1438,754 L2503.1438,741.6094 Z " fill="#000000"/><text fill="#000000" font-family="sans-serif" font-size="14" lengthAdjust="spacing" textLength="224" x="2519.8" y="752.8467">FXHASH Article Moderation Proxy</text><line style="stroke:#181818;stroke-width:0.5;" x1="2491.8" x2="2745.8" y1="764" y2="764"/><line style="stroke:#181818;stroke-width:0.5;" x1="2491.8" x2="2745.8" y1="772" y2="772"/></g><!--class FXHASHAllowedMint--><g id="elem_FXHASHAllowedMint"><rect codeLine="87" fill="#F1F1F1" height="48" id="FXHASHAllowedMint" rx="2.5" ry="2.5" style="stroke:#181818;stroke-width:0.5;" width="177" x="4139.3" y="609"/><ellipse cx="4154.3" cy="625" fill="#ADD1B2" rx="11" ry="11" style="stroke:#181818;stroke-width:1.0;"/><path d="M4157.2688,630.6406 Q4156.6906,630.9375 4156.05,631.0781 Q4155.4094,631.2344 4154.7063,631.2344 Q4152.2063,631.2344 4150.8781,629.5938 Q4149.5656,627.9375 4149.5656,624.8125 Q4149.5656,621.6875 4150.8781,620.0313 Q4152.2063,618.375 4154.7063,618.375 Q4155.4094,618.375 4156.05,618.5313 Q4156.7063,618.6875 4157.2688,618.9844 L4157.2688,621.7031 Q4156.6438,621.125 4156.05,620.8594 Q4155.4563,620.5781 4154.8313,620.5781 Q4153.4875,620.5781 4152.8,621.6563 Q4152.1125,622.7188 4152.1125,624.8125 Q4152.1125,626.9063 4152.8,627.9844 Q4153.4875,629.0469 4154.8313,629.0469 Q4155.4563,629.0469 4156.05,628.7813 Q4156.6438,628.5 4157.2688,627.9219 L4157.2688,630.6406 Z " fill="#000000"/><text fill="#000000" font-family="sans-serif" font-size="14" lengthAdjust="spacing" textLength="145" x="4168.3" y="629.8467">FXHASH Allowed Mint</text><line style="stroke:#181818;stroke-width:0.5;" x1="4140.3" x2="4315.3" y1="641" y2="641"/><line style="stroke:#181818;stroke-width:0.5;" x1="4140.3" x2="4315.3" y1="649" y2="649"/></g><!--class FXHASHAllowedMintIssuer--><g id="elem_FXHASHAllowedMintIssuer"><rect codeLine="88" fill="#F1F1F1" height="48" id="FXHASHAllowedMintIssuer" rx="2.5" ry="2.5" style="stroke:#181818;stroke-width:0.5;" width="223" x="3881.3" y="609"/><ellipse cx="3896.3" cy="625" fill="#ADD1B2" rx="11" ry="11" style="stroke:#181818;stroke-width:1.0;"/><path d="M3899.2688,630.6406 Q3898.6906,630.9375 3898.05,631.0781 Q3897.4094,631.2344 3896.7063,631.2344 Q3894.2063,631.2344 3892.8781,629.5938 Q3891.5656,627.9375 3891.5656,624.8125 Q3891.5656,621.6875 3892.8781,620.0313 Q3894.2063,618.375 3896.7063,618.375 Q3897.4094,618.375 3898.05,618.5313 Q3898.7063,618.6875 3899.2688,618.9844 L3899.2688,621.7031 Q3898.6438,621.125 3898.05,620.8594 Q3897.4563,620.5781 3896.8313,620.5781 Q3895.4875,620.5781 3894.8,621.6563 Q3894.1125,622.7188 3894.1125,624.8125 Q3894.1125,626.9063 3894.8,627.9844 Q3895.4875,629.0469 3896.8313,629.0469 Q3897.4563,629.0469 3898.05,628.7813 Q3898.6438,628.5 3899.2688,627.9219 L3899.2688,630.6406 Z " fill="#000000"/><text fill="#000000" font-family="sans-serif" font-size="14" lengthAdjust="spacing" textLength="191" x="3910.3" y="629.8467">FXHASH Allowed Mint Issuer</text><line style="stroke:#181818;stroke-width:0.5;" x1="3882.3" x2="4103.3" y1="641" y2="641"/><line style="stroke:#181818;stroke-width:0.5;" x1="3882.3" x2="4103.3" y1="649" y2="649"/></g><!--class FXHASHMinterPassGroup--><g id="elem_FXHASHMinterPassGroup"><rect codeLine="92" fill="#F1F1F1" height="48" id="FXHASHMinterPassGroup" rx="2.5" ry="2.5" style="stroke:#181818;stroke-width:0.5;" width="216" x="3373.8" y="732"/><ellipse cx="3388.8" cy="748" fill="#ADD1B2" rx="11" ry="11" style="stroke:#181818;stroke-width:1.0;"/><path d="M3391.7688,753.6406 Q3391.1906,753.9375 3390.55,754.0781 Q3389.9094,754.2344 3389.2063,754.2344 Q3386.7063,754.2344 3385.3781,752.5938 Q3384.0656,750.9375 3384.0656,747.8125 Q3384.0656,744.6875 3385.3781,743.0313 Q3386.7063,741.375 3389.2063,741.375 Q3389.9094,741.375 3390.55,741.5313 Q3391.2063,741.6875 3391.7688,741.9844 L3391.7688,744.7031 Q3391.1438,744.125 3390.55,743.8594 Q3389.9563,743.5781 3389.3313,743.5781 Q3387.9875,743.5781 3387.3,744.6563 Q3386.6125,745.7188 3386.6125,747.8125 Q3386.6125,749.9063 3387.3,750.9844 Q3387.9875,752.0469 3389.3313,752.0469 Q3389.9563,752.0469 3390.55,751.7813 Q3391.1438,751.5 3391.7688,750.9219 L3391.7688,753.6406 Z " fill="#000000"/><text fill="#000000" font-family="sans-serif" font-size="14" lengthAdjust="spacing" textLength="184" x="3402.8" y="752.8467">FXHASH Minter pass group</text><line style="stroke:#181818;stroke-width:0.5;" x1="3374.8" x2="3588.8" y1="764" y2="764"/><line style="stroke:#181818;stroke-width:0.5;" x1="3374.8" x2="3588.8" y1="772" y2="772"/></g><!--class FXHASHMinterPassReserve--><g id="elem_FXHASHMinterPassReserve"><rect codeLine="93" fill="#F1F1F1" height="48" id="FXHASHMinterPassReserve" rx="2.5" ry="2.5" style="stroke:#181818;stroke-width:0.5;" width="227" x="3368.3" y="609"/><ellipse cx="3383.3" cy="625" fill="#ADD1B2" rx="11" ry="11" style="stroke:#181818;stroke-width:1.0;"/><path d="M3386.2688,630.6406 Q3385.6906,630.9375 3385.05,631.0781 Q3384.4094,631.2344 3383.7063,631.2344 Q3381.2063,631.2344 3379.8781,629.5938 Q3378.5656,627.9375 3378.5656,624.8125 Q3378.5656,621.6875 3379.8781,620.0313 Q3381.2063,618.375 3383.7063,618.375 Q3384.4094,618.375 3385.05,618.5313 Q3385.7063,618.6875 3386.2688,618.9844 L3386.2688,621.7031 Q3385.6438,621.125 3385.05,620.8594 Q3384.4563,620.5781 3383.8313,620.5781 Q3382.4875,620.5781 3381.8,621.6563 Q3381.1125,622.7188 3381.1125,624.8125 Q3381.1125,626.9063 3381.8,627.9844 Q3382.4875,629.0469 3383.8313,629.0469 Q3384.4563,629.0469 3385.05,628.7813 Q3385.6438,628.5 3386.2688,627.9219 L3386.2688,630.6406 Z " fill="#000000"/><text fill="#000000" font-family="sans-serif" font-size="14" lengthAdjust="spacing" textLength="195" x="3397.3" y="629.8467">FXHASH Minter pass reserve</text><line style="stroke:#181818;stroke-width:0.5;" x1="3369.3" x2="3594.3" y1="641" y2="641"/><line style="stroke:#181818;stroke-width:0.5;" x1="3369.3" x2="3594.3" y1="649" y2="649"/></g><!--class FXHASHWhitelistReserve--><g id="elem_FXHASHWhitelistReserve"><rect codeLine="94" fill="#F1F1F1" height="48" id="FXHASHWhitelistReserve" rx="2.5" ry="2.5" style="stroke:#181818;stroke-width:0.5;" width="205" x="3128.3" y="609"/><ellipse cx="3143.3" cy="625" fill="#ADD1B2" rx="11" ry="11" style="stroke:#181818;stroke-width:1.0;"/><path d="M3146.2688,630.6406 Q3145.6906,630.9375 3145.05,631.0781 Q3144.4094,631.2344 3143.7063,631.2344 Q3141.2063,631.2344 3139.8781,629.5938 Q3138.5656,627.9375 3138.5656,624.8125 Q3138.5656,621.6875 3139.8781,620.0313 Q3141.2063,618.375 3143.7063,618.375 Q3144.4094,618.375 3145.05,618.5313 Q3145.7063,618.6875 3146.2688,618.9844 L3146.2688,621.7031 Q3145.6438,621.125 3145.05,620.8594 Q3144.4563,620.5781 3143.8313,620.5781 Q3142.4875,620.5781 3141.8,621.6563 Q3141.1125,622.7188 3141.1125,624.8125 Q3141.1125,626.9063 3141.8,627.9844 Q3142.4875,629.0469 3143.8313,629.0469 Q3144.4563,629.0469 3145.05,628.7813 Q3145.6438,628.5 3146.2688,627.9219 L3146.2688,630.6406 Z " fill="#000000"/><text fill="#000000" font-family="sans-serif" font-size="14" lengthAdjust="spacing" textLength="173" x="3157.3" y="629.8467">FXHASH Whitelist reserve</text><line style="stroke:#181818;stroke-width:0.5;" x1="3129.3" x2="3332.3" y1="641" y2="641"/><line style="stroke:#181818;stroke-width:0.5;" x1="3129.3" x2="3332.3" y1="649" y2="649"/></g><!--link MintTicketProxy to RandomizerProxy--><g id="link_MintTicketProxy_RandomizerProxy"><path codeLine="97" d="M4495.7,657.33 C4460.56,677.77 4409.54,707.45 4372.97,728.72 " fill="none" id="MintTicketProxy-to-RandomizerProxy" style="stroke:#181818;stroke-width:1.0;"/><polygon fill="#181818" points="4369.14,731.54,4378.9299,730.4643,4373.4599,729.0224,4374.9018,723.5524,4369.14,731.54" style="stroke:#181818;stroke-width:1.0;"/></g><!--link FXHASHIssuerProxy to MintTicketProxy--><g id="link_FXHASHIssuerProxy_MintTicketProxy"><path codeLine="98" d="M3826.13,449.47 C3992.88,450.89 4344.59,456.66 4394.8,480 C4451.97,506.57 4496.91,567.93 4519.6,604.04 " fill="none" id="FXHASHIssuerProxy-to-MintTicketProxy" style="stroke:#181818;stroke-width:1.0;"/><polygon fill="#181818" points="4522.52,607.74,4521.1715,597.9839,4519.8828,603.492,4514.3747,602.2034,4522.52,607.74" style="stroke:#181818;stroke-width:1.0;"/></g><!--link FXHASHIssuerProxy to FXHASHCollaborationFactoryProxy--><g id="link_FXHASHIssuerProxy_FXHASHCollaborationFactoryProxy"><path codeLine="99" d="M3766.34,423.6 C3779.81,410.32 3794.64,392.48 3801.8,373 C3829.52,297.7 3830.21,261.12 3787.8,193 C3772.57,168.53 3747.16,149.71 3723.21,136.23 " fill="none" id="FXHASHIssuerProxy-to-FXHASHCollaborationFactoryProxy" style="stroke:#181818;stroke-width:1.0;"/><polygon fill="#181818" points="3719.13,133.43,3725.0745,141.2826,3723.5068,135.8473,3728.9421,134.2796,3719.13,133.43" style="stroke:#181818;stroke-width:1.0;"/></g><!--link FXHASHCollab to FXHASHIssuerProxy--><g id="link_FXHASHCollab_FXHASHIssuerProxy"><path codeLine="100" d="M3690.37,349.33 C3700.17,369.08 3714.24,397.47 3724.7,418.55 " fill="none" id="FXHASHCollab-to-FXHASHIssuerProxy" style="stroke:#181818;stroke-width:1.0;"/><polygon fill="#181818" points="3727.27,422.74,3726.8479,412.9002,3725.0453,418.2622,3719.6834,416.4596,3727.27,422.74" style="stroke:#181818;stroke-width:1.0;"/></g><!--link FXHASHIssuerProxy to GenTKProxyFull--><g id="link_FXHASHIssuerProxy_GenTKProxyFull"><path codeLine="101" d="M3651.54,448.91 C3236.04,448.6 1477.87,449.05 1430.8,480 C1349.02,533.78 1422.39,626.92 1340.8,681 C1323.06,692.76 978.28,683.19 957.8,689 C929.98,696.9 901.95,713.43 883.02,727.97 " fill="none" id="FXHASHIssuerProxy-to-GenTKProxyFull" style="stroke:#181818;stroke-width:1.0;"/><polygon fill="#181818" points="879.41,731.61,888.9488,729.1581,883.3296,728.5058,883.982,722.8866,879.41,731.61" style="stroke:#181818;stroke-width:1.0;"/></g><!--link FXHASHIssuerProxy to GenTKProxyFull--><g id="link_FXHASHIssuerProxy_GenTKProxyFull"><path codeLine="123" d="M3651.6,448.9 C3240.13,448.61 1512.45,449.33 1465.8,480 C1384.02,533.78 1457.39,626.92 1375.8,681 C1358.06,692.76 1013.28,683.19 992.8,689 C964.63,697 936.24,713.85 912.75,728.52 " fill="none" id="FXHASHIssuerProxy-to-GenTKProxyFull-1" style="stroke:#181818;stroke-width:1.0;"/><polygon fill="#181818" points="908.81,731.61,918.5586,730.2084,913.0436,728.9497,914.3022,723.4347,908.81,731.61" style="stroke:#181818;stroke-width:1.0;"/></g><!--link FXHASHMarketplaceProxy to GenTKProxyFull--><g id="link_FXHASHMarketplaceProxy_GenTKProxyFull"><path codeLine="102" d="M106.05,462.79 C88.79,467.13 74.68,472.75 68.8,480 C12.58,549.42 6,617.47 68.8,681 C82.55,694.91 754.25,682.81 772.8,689 C796.36,696.86 818.88,713.39 835.5,727.94 " fill="none" id="FXHASHMarketplaceProxy-to-GenTKProxyFull" style="stroke:#181818;stroke-width:1.0;"/><polygon fill="#181818" points="838.6,730.59,834.5329,721.6201,834.8637,727.2673,829.2166,727.5981,838.6,730.59" style="stroke:#181818;stroke-width:1.0;"/></g><!--link FXHASHIssuerProxy to GenTKProxyLight--><g id="link_FXHASHIssuerProxy_GenTKProxyLight"><path codeLine="103" d="M3651.45,449.15 C3251.96,450.01 1618.15,455.07 1571.8,480 C1476.59,531.21 1519.23,613.47 1434.8,681 C1408.24,702.25 1374.8,718.04 1344.52,729.46 " fill="none" id="FXHASHIssuerProxy-to-GenTKProxyLight" style="stroke:#181818;stroke-width:1.0;"/><polygon fill="#181818" points="1339.9,731.54,1349.7299,732.1515,1344.5863,729.7969,1346.9409,724.6534,1339.9,731.54" style="stroke:#181818;stroke-width:1.0;"/></g><!--link FXHASHIssuerProxy to GenTKProxyLight--><g id="link_FXHASHIssuerProxy_GenTKProxyLight"><path codeLine="122" d="M3651.56,449.18 C3256.32,450.1 1652.72,455.31 1606.8,480 C1511.59,531.21 1554.23,613.47 1469.8,681 C1434.84,708.97 1387.98,727.49 1347.65,739 " fill="none" id="FXHASHIssuerProxy-to-GenTKProxyLight-1" style="stroke:#181818;stroke-width:1.0;"/><polygon fill="#181818" points="1343.26,740.51,1353.0077,741.918,1348.0724,739.1534,1350.8371,734.2181,1343.26,740.51" style="stroke:#181818;stroke-width:1.0;"/></g><!--link FXHASHMarketplaceProxy to GenTKProxyLight--><g id="link_FXHASHMarketplaceProxy_GenTKProxyLight"><path codeLine="104" d="M137.46,472.32 C135,474.64 132.76,477.19 130.8,480 C79.73,553.29 67.88,617.59 130.8,681 C140.98,691.25 1157.05,684.59 1170.8,689 C1195.14,696.79 1218.66,713.32 1236.09,727.89 " fill="none" id="FXHASHMarketplaceProxy-to-GenTKProxyLight" style="stroke:#181818;stroke-width:1.0;"/><polygon fill="#181818" points="1239.39,731.54,1235.1212,722.6643,1235.5796,728.3026,1229.9413,728.761,1239.39,731.54" style="stroke:#181818;stroke-width:1.0;"/></g><!--link FXHASHMarketplaceProxy to fxTextProxy--><g id="link_FXHASHMarketplaceProxy_fxTextProxy"><path codeLine="105" d="M323.68,471.28 C329.29,473.87 334.7,476.77 339.8,480 C389.29,511.36 428.27,569.22 448.51,603.79 " fill="none" id="FXHASHMarketplaceProxy-to-fxTextProxy" style="stroke:#181818;stroke-width:1.0;"/><polygon fill="#181818" points="451.36,607.72,450.3226,597.9259,448.8593,603.3903,443.395,601.927,451.36,607.72" style="stroke:#181818;stroke-width:1.0;"/></g><!--link FXHASHIssuerProxy to FixedPriceMinterProxy--><g id="link_FXHASHIssuerProxy_FixedPriceMinterProxy"><path codeLine="106" d="M3651.39,448.95 C3327.01,448.99 2207.21,451.22 2136.8,480 C2074.31,505.54 2021.8,567.57 1994.97,604.01 " fill="none" id="FXHASHIssuerProxy-to-FixedPriceMinterProxy" style="stroke:#181818;stroke-width:1.0;"/><polygon fill="#181818" points="1991.52,607.75,2000.0506,602.8276,1994.4626,603.7076,1993.5826,598.1196,1991.52,607.75" style="stroke:#181818;stroke-width:1.0;"/></g><!--link FXHASHIssuerProxy to DutchAuctionMinterProxy--><g id="link_FXHASHIssuerProxy_DutchAuctionMinterProxy"><path codeLine="107" d="M3651.44,449.54 C3286.94,451.93 1904.36,462.14 1862.8,480 C1803.18,505.63 1755.24,567.62 1731.02,604.03 " fill="none" id="FXHASHIssuerProxy-to-DutchAuctionMinterProxy" style="stroke:#181818;stroke-width:1.0;"/><polygon fill="#181818" points="1727.9,607.77,1736.1785,602.4346,1730.6405,603.5879,1729.4872,598.0499,1727.9,607.77" style="stroke:#181818;stroke-width:1.0;"/></g><!--link FXHASHIssuerProxy to FXHASHModeration--><g id="link_FXHASHIssuerProxy_FXHASHModeration"><path codeLine="108" d="M3651.38,450.65 C3504.31,453.86 3213.61,462.28 3112.8,480 C2954.67,507.8 2776.25,570.99 2683.16,606.53 " fill="none" id="FXHASHIssuerProxy-to-FXHASHModeration" style="stroke:#181818;stroke-width:1.0;"/><polygon fill="#181818" points="2678.7,608.62,2688.535,609.1427,2683.3704,606.8347,2685.6785,601.6701,2678.7,608.62" style="stroke:#181818;stroke-width:1.0;"/></g><!--link FXHASHIssuerProxy to FXHASHAllowedMint--><g id="link_FXHASHIssuerProxy_FXHASHAllowedMint"><path codeLine="109" d="M3826.04,452.15 C3931.15,456.55 4096.82,465.65 4121.8,480 C4170.2,507.79 4201.68,567.71 4216.95,603.46 " fill="none" id="FXHASHIssuerProxy-to-FXHASHAllowedMint" style="stroke:#181818;stroke-width:1.0;"/><polygon fill="#181818" points="4219.08,607.55,4219.274,597.7031,4217.1397,602.9418,4211.9009,600.8075,4219.08,607.55" style="stroke:#181818;stroke-width:1.0;"/></g><!--link FXHASHIssuerProxy to FXHASHAllowedMintIssuer--><g id="link_FXHASHIssuerProxy_FXHASHAllowedMintIssuer"><path codeLine="110" d="M3826.14,471.84 C3831.57,474.31 3836.84,477.02 3841.8,480 C3896.59,512.88 3945.85,570.08 3972.32,604.15 " fill="none" id="FXHASHIssuerProxy-to-FXHASHAllowedMintIssuer" style="stroke:#181818;stroke-width:1.0;"/><polygon fill="#181818" points="3975.75,607.6,3973.4348,598.0271,3972.7021,603.6363,3967.0929,602.9037,3975.75,607.6" style="stroke:#181818;stroke-width:1.0;"/></g><!--link FXHASHIssuerProxy to FXHASHMinterPassReserve--><g id="link_FXHASHIssuerProxy_FXHASHMinterPassReserve"><path codeLine="111" d="M3651.51,471.9 C3646.07,474.35 3640.78,477.05 3635.8,480 C3580.31,512.94 3529.95,570.11 3502.82,604.17 " fill="none" id="FXHASHIssuerProxy-to-FXHASHMinterPassReserve" style="stroke:#181818;stroke-width:1.0;"/><polygon fill="#181818" points="3499.31,607.61,3508.0252,603.0226,3502.4073,603.6849,3501.745,598.0669,3499.31,607.61" style="stroke:#181818;stroke-width:1.0;"/></g><!--link FXHASHIssuerProxy to FXHASHWhitelistReserve--><g id="link_FXHASHIssuerProxy_FXHASHWhitelistReserve"><path codeLine="112" d="M3651.48,452.3 C3545.19,456.88 3376.61,466.2 3350.8,480 C3299.23,507.58 3262.34,567.86 3243.99,603.66 " fill="none" id="FXHASHIssuerProxy-to-FXHASHWhitelistReserve" style="stroke:#181818;stroke-width:1.0;"/><polygon fill="#181818" points="3241.42,607.76,3249.0546,601.538,3243.6789,603.2994,3241.9175,597.9237,3241.42,607.76" style="stroke:#181818;stroke-width:1.0;"/></g><!--link FXHASHMinterPassReserve to FXHASHMinterPassGroup--><g id="link_FXHASHMinterPassReserve_FXHASHMinterPassGroup"><path codeLine="113" d="M3481.8,657.33 C3481.8,676.91 3481.8,704.98 3481.8,726.01 " fill="none" id="FXHASHMinterPassReserve-to-FXHASHMinterPassGroup" style="stroke:#181818;stroke-width:1.0;"/><polygon fill="#181818" points="3481.8,730.74,3485.8,721.74,3481.8,725.74,3477.8,721.74,3481.8,730.74" style="stroke:#181818;stroke-width:1.0;"/></g><!--link FXHASHModeration to FXHASHArticleModerationProxy--><g id="link_FXHASHModeration_FXHASHArticleModerationProxy"><path codeLine="114" d="M2618.8,657.33 C2618.8,676.91 2618.8,704.98 2618.8,726.01 " fill="none" id="FXHASHModeration-to-FXHASHArticleModerationProxy" style="stroke:#181818;stroke-width:1.0;"/><polygon fill="#181818" points="2618.8,730.74,2622.8,721.74,2618.8,725.74,2614.8,721.74,2618.8,730.74" style="stroke:#181818;stroke-width:1.0;"/></g><!--link FXHASHModeration to FXHASHTokenModerationProxy--><g id="link_FXHASHModeration_FXHASHTokenModerationProxy"><path codeLine="115" d="M2557.1,657.45 C2531.61,667.17 2501.77,678.59 2474.8,689 C2440.5,702.25 2402.34,717.14 2370.97,729.42 " fill="none" id="FXHASHModeration-to-FXHASHTokenModerationProxy" style="stroke:#181818;stroke-width:1.0;"/><polygon fill="#181818" points="2366.59,731.52,2376.4293,731.954,2371.2441,729.6926,2373.5055,724.5074,2366.59,731.52" style="stroke:#181818;stroke-width:1.0;"/></g><!--link FXHASHAllowedMintIssuer to FXHASHUserModerationProxy--><g id="link_FXHASHAllowedMintIssuer_FXHASHUserModerationProxy"><path codeLine="116" d="M3957.87,657.35 C3892.89,699.48 3747.69,787.57 3611.8,828 C3423.54,884.02 3195,898.64 3055.02,901.9 " fill="none" id="FXHASHAllowedMintIssuer-to-FXHASHUserModerationProxy" style="stroke:#181818;stroke-width:1.0;"/><polygon fill="#181818" points="3050.25,902.03,3059.3391,905.8233,3055.2487,901.9157,3059.1562,897.8254,3050.25,902.03" style="stroke:#181818;stroke-width:1.0;"/></g><!--link FXHASHTokenModerationProxy to FXHASHUserModerationProxy--><g id="link_FXHASHTokenModerationProxy_FXHASHUserModerationProxy"><path codeLine="117" d="M2349.17,780.5 C2382.47,797.22 2430.17,818.36 2474.8,828 C2537.39,841.52 2700.14,822.89 2762.8,836 C2801.93,844.19 2843.67,861.26 2875.12,875.99 " fill="none" id="FXHASHTokenModerationProxy-to-FXHASHUserModerationProxy" style="stroke:#181818;stroke-width:1.0;"/><polygon fill="#181818" points="2879.47,878.52,2873.0457,871.0549,2874.9504,876.3814,2869.6239,878.2862,2879.47,878.52" style="stroke:#181818;stroke-width:1.0;"/></g><!--link GenTKFactoryProxyFull to GenTKProxyFull--><g id="link_GenTKFactoryProxyFull_GenTKProxyFull"><path codeLine="118" d="M842.62,657.33 C846.67,676.91 852.47,704.98 856.81,726.01 " fill="none" id="GenTKFactoryProxyFull-to-GenTKProxyFull" style="stroke:#181818;stroke-width:1.0;"/><polygon fill="#181818" points="858,730.74,860.0927,721.116,856.9865,725.8438,852.2587,722.7376,858,730.74" style="stroke:#181818;stroke-width:1.0;"/></g><!--link GenTKFactoryProxyLight to GenTKProxyLight--><g id="link_GenTKFactoryProxyLight_GenTKProxyLight"><path codeLine="119" d="M1243.01,657.33 C1247.38,676.91 1253.64,704.98 1258.34,726.01 " fill="none" id="GenTKFactoryProxyLight-to-GenTKProxyLight" style="stroke:#181818;stroke-width:1.0;"/><polygon fill="#181818" points="1259.61,730.74,1261.5564,721.0854,1258.5223,725.8597,1253.748,722.8257,1259.61,730.74" style="stroke:#181818;stroke-width:1.0;"/></g><!--link FXHASHIssuerProxy to GenTKFactoryProxyFull--><g id="link_FXHASHIssuerProxy_GenTKFactoryProxyFull"><path codeLine="120" d="M3651.37,449.02 C3187.93,449.24 1037.23,451.8 974.8,480 C917.95,505.68 874.63,567.66 853.03,604.05 " fill="none" id="FXHASHIssuerProxy-to-GenTKFactoryProxyFull" style="stroke:#181818;stroke-width:1.0;"/><polygon fill="#181818" points="850.25,607.79,858.2518,602.0479,852.7782,603.4763,851.3499,598.0027,850.25,607.79" style="stroke:#181818;stroke-width:1.0;"/></g><!--link FXHASHIssuerProxy to GenTKFactoryProxyLight--><g id="link_FXHASHIssuerProxy_GenTKFactoryProxyLight"><path codeLine="121" d="M3651.55,449.15 C3229.55,450 1418.44,455.09 1365.8,480 C1311.41,505.74 1271.72,566.96 1251.94,603.37 " fill="none" id="FXHASHIssuerProxy-to-GenTKFactoryProxyLight" style="stroke:#181818;stroke-width:1.0;"/><polygon fill="#181818" points="1249.17,607.56,1256.9459,601.5156,1251.5311,603.1526,1249.8941,597.7378,1249.17,607.56" style="stroke:#181818;stroke-width:1.0;"/></g><!--link FXHASHIssuerProxy to RandomizerProxy--><g id="link_FXHASHIssuerProxy_RandomizerProxy"><path codeLine="124" d="M3826.07,450.44 C3986.76,453.51 4314.69,461.97 4331.8,480 C4395.52,547.13 4360.45,670.27 4339.67,726.11 " fill="none" id="FXHASHIssuerProxy-to-RandomizerProxy" style="stroke:#181818;stroke-width:1.0;"/><polygon fill="#181818" points="4337.58,730.62,4344.5042,723.616,4339.3481,725.9431,4337.021,720.787,4337.58,730.62" style="stroke:#181818;stroke-width:1.0;"/></g><!--link FXHASHMarketplaceProxy to FXHASHMarketplace--><g id="link_FXHASHMarketplaceProxy_FXHASHMarketplace"><path codeLine="126" d="M217.46,472.18 C221.29,505.5 228.33,566.91 232.49,603.13 " fill="none" id="FXHASHMarketplaceProxy-to-FXHASHMarketplace" style="stroke:#181818;stroke-width:1.0;"/><polygon fill="#181818" points="233.13,607.72,236.1028,598.3305,232.5731,602.7511,228.1525,599.2215,233.13,607.72" style="stroke:#181818;stroke-width:1.0;"/></g><!--link fxTextProxy to fxText--><g id="link_fxTextProxy_fxText"><path codeLine="127" d="M463.8,657.33 C463.8,676.91 463.8,704.98 463.8,726.01 " fill="none" id="fxTextProxy-to-fxText" style="stroke:#181818;stroke-width:1.0;"/><polygon fill="#181818" points="463.8,730.74,467.8,721.74,463.8,725.74,459.8,721.74,463.8,730.74" style="stroke:#181818;stroke-width:1.0;"/></g><!--link GenTKProxyLight to GenTKLight--><g id="link_GenTKProxyLight_GenTKLight"><path codeLine="128" d="M1264.8,780.3 C1264.8,805.45 1264.8,845.57 1264.8,872.81 " fill="none" id="GenTKProxyLight-to-GenTKLight" style="stroke:#181818;stroke-width:1.0;"/><polygon fill="#181818" points="1264.8,877.76,1268.8,868.76,1264.8,872.76,1260.8,868.76,1264.8,877.76" style="stroke:#181818;stroke-width:1.0;"/></g><!--link GenTKProxyFull to GenTKFull--><g id="link_GenTKProxyFull_GenTKFull"><path codeLine="129" d="M862.8,780.3 C862.8,805.45 862.8,845.57 862.8,872.81 " fill="none" id="GenTKProxyFull-to-GenTKFull" style="stroke:#181818;stroke-width:1.0;"/><polygon fill="#181818" points="862.8,877.76,866.8,868.76,862.8,872.76,858.8,868.76,862.8,877.76" style="stroke:#181818;stroke-width:1.0;"/></g><!--link GenTKFactoryProxyLight to GenTKFactoryLight--><g id="link_GenTKFactoryProxyLight_GenTKFactoryLight"><path codeLine="130" d="M1205.8,657.33 C1177.98,677.6 1137.7,706.97 1108.57,728.2 " fill="none" id="GenTKFactoryProxyLight-to-GenTKFactoryLight" style="stroke:#181818;stroke-width:1.0;"/><polygon fill="#181818" points="1104.99,731.54,1114.6121,729.4389,1109.0207,728.5813,1109.8782,722.9899,1104.99,731.54" style="stroke:#181818;stroke-width:1.0;"/></g><!--link GenTKFactoryProxyFull to GenTKFactoryFull--><g id="link_GenTKFactoryProxyFull_GenTKFactoryFull"><path codeLine="131" d="M807.34,657.33 C780.98,677.52 742.84,706.73 715.14,727.94 " fill="none" id="GenTKFactoryProxyFull-to-GenTKFactoryFull" style="stroke:#181818;stroke-width:1.0;"/><polygon fill="#181818" points="711.44,731.54,721.0129,729.2248,715.4037,728.4921,716.1363,722.8829,711.44,731.54" style="stroke:#181818;stroke-width:1.0;"/></g><!--link fxcollabfactory to FXHASHCollab--><g id="link_fxcollabfactory_FXHASHCollab"><path codeLine="132" d="M3658.51,241.26 C3662.4,257.14 3667.59,278.28 3671.75,295.22 " fill="none" id="fxcollabfactory-to-FXHASHCollab" style="stroke:#181818;stroke-width:1.0;"/><polygon fill="#181818" points="3673.11,299.79,3674.8615,290.0981,3671.9242,294.9326,3667.0897,291.9954,3673.11,299.79" style="stroke:#181818;stroke-width:1.0;"/></g><!--link FXHASHCollaborationFactoryProxy to fxcollabfactory--><g id="link_FXHASHCollaborationFactoryProxy_fxcollabfactory"><path codeLine="133" d="M3660.61,133.26 C3659.11,149.14 3657.12,170.28 3655.52,187.22 " fill="none" id="FXHASHCollaborationFactoryProxy-to-fxcollabfactory" style="stroke:#181818;stroke-width:1.0;"/><polygon fill="#181818" points="3654.99,191.79,3659.8195,183.2065,3655.4607,186.8122,3651.855,182.4534,3654.99,191.79" style="stroke:#181818;stroke-width:1.0;"/></g><!--link MintTicketProxy to MintTicket--><g id="link_MintTicketProxy_MintTicket"><path codeLine="134" d="M4535.8,657.33 C4535.8,676.91 4535.8,704.98 4535.8,726.01 " fill="none" id="MintTicketProxy-to-MintTicket" style="stroke:#181818;stroke-width:1.0;"/><polygon fill="#181818" points="4535.8,730.74,4539.8,721.74,4535.8,725.74,4531.8,721.74,4535.8,730.74" style="stroke:#181818;stroke-width:1.0;"/></g><!--link RandomizerProxy to rndmizer--><g id="link_RandomizerProxy_rndmizer"><path codeLine="135" d="M4327.8,780.3 C4327.8,805.45 4327.8,845.57 4327.8,872.81 " fill="none" id="RandomizerProxy-to-rndmizer" style="stroke:#181818;stroke-width:1.0;"/><polygon fill="#181818" points="4327.8,877.76,4331.8,868.76,4327.8,872.76,4323.8,868.76,4327.8,877.76" style="stroke:#181818;stroke-width:1.0;"/></g><!--link FixedPriceMinterProxy to FixedPriceMinter--><g id="link_FixedPriceMinterProxy_FixedPriceMinter"><path codeLine="136" d="M1975.8,657.33 C1975.8,676.91 1975.8,704.98 1975.8,726.01 " fill="none" id="FixedPriceMinterProxy-to-FixedPriceMinter" style="stroke:#181818;stroke-width:1.0;"/><polygon fill="#181818" points="1975.8,730.74,1979.8,721.74,1975.8,725.74,1971.8,721.74,1975.8,730.74" style="stroke:#181818;stroke-width:1.0;"/></g><!--link DutchAuctionMinterProxy to DutchAuctionMinter--><g id="link_DutchAuctionMinterProxy_DutchAuctionMinter"><path codeLine="137" d="M1713.8,657.33 C1713.8,676.91 1713.8,704.98 1713.8,726.01 " fill="none" id="DutchAuctionMinterProxy-to-DutchAuctionMinter" style="stroke:#181818;stroke-width:1.0;"/><polygon fill="#181818" points="1713.8,730.74,1717.8,721.74,1713.8,725.74,1709.8,721.74,1713.8,730.74" style="stroke:#181818;stroke-width:1.0;"/></g><!--link FXHASHArticleModerationProxy to FXHASHArticleModeration--><g id="link_FXHASHArticleModerationProxy_FXHASHArticleModeration"><path codeLine="138" d="M2618.8,780.3 C2618.8,805.45 2618.8,845.57 2618.8,872.81 " fill="none" id="FXHASHArticleModerationProxy-to-FXHASHArticleModeration" style="stroke:#181818;stroke-width:1.0;"/><polygon fill="#181818" points="2618.8,877.76,2622.8,868.76,2618.8,872.76,2614.8,868.76,2618.8,877.76" style="stroke:#181818;stroke-width:1.0;"/></g><!--link FXHASHIssuerProxy to FXHASHIssuer--><g id="link_FXHASHIssuerProxy_FXHASHIssuer"><path codeLine="139" d="M3738.8,472.18 C3738.8,505.5 3738.8,566.91 3738.8,603.13 " fill="none" id="FXHASHIssuerProxy-to-FXHASHIssuer" style="stroke:#181818;stroke-width:1.0;"/><polygon fill="#181818" points="3738.8,607.72,3742.8,598.72,3738.8,602.72,3734.8,598.72,3738.8,607.72" style="stroke:#181818;stroke-width:1.0;"/></g><!--link FXHASHTokenModerationProxy to FXHASHTokenModeration--><g id="link_FXHASHTokenModerationProxy_FXHASHTokenModeration"><path codeLine="140" d="M2305.8,780.3 C2305.8,805.45 2305.8,845.57 2305.8,872.81 " fill="none" id="FXHASHTokenModerationProxy-to-FXHASHTokenModeration" style="stroke:#181818;stroke-width:1.0;"/><polygon fill="#181818" points="2305.8,877.76,2309.8,868.76,2305.8,872.76,2301.8,868.76,2305.8,877.76" style="stroke:#181818;stroke-width:1.0;"/></g><!--link FXHASHUserModerationProxy to FXHASHUserModeration--><g id="link_FXHASHUserModerationProxy_FXHASHUserModeration"><path codeLine="141" d="M2925.8,927.4 C2925.8,948.18 2925.8,978.62 2925.8,1000.94 " fill="none" id="FXHASHUserModerationProxy-to-FXHASHUserModeration" style="stroke:#181818;stroke-width:1.0;"/><polygon fill="#181818" points="2925.8,1005.72,2929.8,996.72,2925.8,1000.72,2921.8,996.72,2925.8,1005.72" style="stroke:#181818;stroke-width:1.0;"/></g><!--SRC=[dLZBRjim4BphAmYVseF_831Wj4XIf04ArqLxLMNQ5io8XaItJWl_U_cIj2INZoQdQ3cpErnobwJFTNEg3vHiwcx7Nze_j2TtTnlQYBexCBfQaRyLaNyDguU1B6RKWjG3wRkT_j2GSyy5RpY3AFAbvzTNZPsDsbRTgkfiOo-UsqwGRTkSg5YamZiuwLDzcqzF0G022JDyaZ1fsF8JxGOq-2HpVtqdw5MynpK2dJDGHjrVj_B_2JAB7550eS4QTGfySmGyq6vxYiPsK4lM7euYYWLQ5Vp9mBK4_VrPVJheMJOW0ENQgZz3BenqNpU2zw_42sZDsRWEtGzl1n4LjqYMzXV6ofEaq22Q_4gcI3l7CXGmiGHvmOmr5nEIKzbn_DpiLeCLUV_ZSVtraJpNlQoMCwiRcYnC2t-1S1dNc84Jhqn36X0TaCEY_S0Pgt_olXOjxmhq6JpmRWoLKsLmnBeUqvefUoVAgCfoRNatUcnlR4XFIBa8SeDfXBt3NL2YFNyQXelgtlbaZSWfd37WIsZ60eN672wSwiIHasPMt5xfJdficn6VxRiOHMbHPcqrHYpl0HFEnUF37BkQFrv4SoJhIwFNhL0rJf9nzO2rHvLZRA0zzE7j4B0eV4UBIsa6msATZDvI6iwtGKg3nB9w2cXJF3NYnKHtf-SXsAQkdzZnEthJLuKtp2FaJGBqKCbCV1_1L3nFkRciUz4sZBvXDXXpKc47IsOK-Wdc57Zpj_0qgpLZ_BSiPBNJItgSYvy36hEoPaXXbmHSsp1X6zvGkTL-5HscjfJFodRe-UKC2yrKiXnwK2CPTZy6HVXM4EBX-x4LbBM3GFZJs4YNS_HkrsIvN0MN_k1Kq2Z_NewZScSU70S4U0JXZhsB6NxlY2FZximTjCXV5WfV1f7yeASKZesT2gdCWs9EmM3j5E9idII31nisXGwsPyG96i1Kb3zdg1nlHma6sfGZQG0qx5YAEymGqJS0jglnfrHYlw854Bms2h5Pn_-1IiJr6rEgzC9N32X6K9oLfszMO-Iwmi3qIxBkF90pQmaVYzwJ8-YaLQQjslcvxnQirOFVOhpawk7ffoAqJQ4Dh8fqgKW7grBLcIhVP2jnUbEcxFnRNBGOewNw3m00]--></g></svg>